G04*
G04 #@! TF.GenerationSoftware,Altium Limited,Altium Designer,25.8.1 (18)*
G04*
G04 Layer_Physical_Order=2*
G04 Layer_Color=16711680*
%FSLAX25Y25*%
%MOIN*%
G70*
G04*
G04 #@! TF.SameCoordinates,8EC05070-4222-424C-B7D2-10FEA1704A48*
G04*
G04*
G04 #@! TF.FilePolarity,Positive*
G04*
G01*
G75*
%ADD18C,0.02362*%
%ADD19O,0.07874X0.06299*%
%ADD20R,0.07874X0.06299*%
%ADD21O,0.07874X0.05906*%
%ADD22R,0.07874X0.05906*%
%ADD23C,0.06000*%
%ADD24C,0.06693*%
G36*
X504885Y297000D02*
X493663D01*
X493208Y297455D01*
X491919Y298316D01*
X490486Y298910D01*
X488965Y299213D01*
X487414D01*
X485892Y298910D01*
X484459Y298316D01*
X483170Y297455D01*
X482715Y297000D01*
X336183D01*
X335728Y297455D01*
X334438Y298316D01*
X334156Y298433D01*
X334369Y300050D01*
X334666Y300089D01*
X335768Y300545D01*
X336713Y301271D01*
X337439Y302217D01*
X337895Y303318D01*
X337895Y303319D01*
X332500D01*
X327105D01*
X327105Y303318D01*
X327561Y302217D01*
X328287Y301271D01*
X329094Y300651D01*
X329117Y300077D01*
X328853Y298998D01*
X328412Y298910D01*
X326979Y298316D01*
X325689Y297455D01*
X325235Y297000D01*
X320115D01*
Y476000D01*
X324920D01*
X325356Y475219D01*
X325494Y474425D01*
X324592Y473523D01*
X323731Y472234D01*
X323137Y470801D01*
X322835Y469279D01*
Y467728D01*
X323137Y466207D01*
X323731Y464774D01*
X324592Y463485D01*
X325689Y462388D01*
X326979Y461526D01*
X328412Y460932D01*
X329933Y460630D01*
X331484D01*
X333005Y460932D01*
X334438Y461526D01*
X335728Y462388D01*
X336825Y463485D01*
X337686Y464774D01*
X338280Y466207D01*
X338583Y467728D01*
Y469279D01*
X338280Y470801D01*
X337686Y472234D01*
X336825Y473523D01*
X335923Y474425D01*
X336062Y475219D01*
X336497Y476000D01*
X482400D01*
X482836Y475219D01*
X482975Y474425D01*
X482073Y473523D01*
X481211Y472234D01*
X480618Y470801D01*
X480315Y469279D01*
Y467728D01*
X480618Y466207D01*
X481211Y464774D01*
X482073Y463485D01*
X483170Y462388D01*
X484459Y461526D01*
X485892Y460932D01*
X487414Y460630D01*
X488965D01*
X490486Y460932D01*
X491919Y461526D01*
X493208Y462388D01*
X494305Y463485D01*
X495167Y464774D01*
X495760Y466207D01*
X496063Y467728D01*
Y469279D01*
X495760Y470801D01*
X495167Y472234D01*
X494305Y473523D01*
X493403Y474425D01*
X493542Y475219D01*
X493978Y476000D01*
X504885D01*
X504885Y297000D01*
D02*
G37*
%LPC*%
G36*
X459681Y469041D02*
Y465681D01*
X463895D01*
X463895Y465682D01*
X463439Y466783D01*
X462713Y467729D01*
X461768Y468455D01*
X460666Y468911D01*
X459681Y469041D01*
D02*
G37*
G36*
X457319D02*
X456334Y468911D01*
X455232Y468455D01*
X454287Y467729D01*
X453561Y466783D01*
X453105Y465682D01*
X453105Y465681D01*
X457319D01*
Y469041D01*
D02*
G37*
G36*
X366817Y462569D02*
X365613D01*
X364449Y462257D01*
X363406Y461654D01*
X362554Y460803D01*
X361952Y459760D01*
X361640Y458596D01*
Y457391D01*
X361952Y456228D01*
X362554Y455185D01*
X363406Y454333D01*
X364449Y453731D01*
X365613Y453419D01*
X366817D01*
X367981Y453731D01*
X369024Y454333D01*
X369876Y455185D01*
X370478Y456228D01*
X370790Y457391D01*
Y458596D01*
X370478Y459760D01*
X369876Y460803D01*
X369024Y461654D01*
X367981Y462257D01*
X366817Y462569D01*
D02*
G37*
G36*
X349817D02*
X348612D01*
X347449Y462257D01*
X346406Y461654D01*
X345554Y460803D01*
X344952Y459760D01*
X344640Y458596D01*
Y457391D01*
X344952Y456228D01*
X345554Y455185D01*
X346406Y454333D01*
X347449Y453731D01*
X348612Y453419D01*
X349817D01*
X350981Y453731D01*
X352024Y454333D01*
X352875Y455185D01*
X353478Y456228D01*
X353790Y457391D01*
Y458596D01*
X353478Y459760D01*
X352875Y460803D01*
X352024Y461654D01*
X350981Y462257D01*
X349817Y462569D01*
D02*
G37*
G36*
X463895Y463319D02*
X458500D01*
X453105D01*
X453105Y463318D01*
X453561Y462217D01*
X454287Y461271D01*
X455158Y460602D01*
X455170Y460441D01*
X454560Y459027D01*
X452988D01*
Y449972D01*
X464012D01*
Y459027D01*
X462440D01*
X461830Y460441D01*
X461842Y460602D01*
X462713Y461271D01*
X463439Y462217D01*
X463895Y463318D01*
X463895Y463319D01*
D02*
G37*
G36*
X444512Y460724D02*
X433488D01*
Y451276D01*
X434740D01*
X435275Y449701D01*
X434843Y449369D01*
X434086Y448383D01*
X433610Y447233D01*
X433603Y447181D01*
X439000D01*
X444397D01*
X444390Y447233D01*
X443914Y448383D01*
X443157Y449369D01*
X442725Y449701D01*
X443260Y451276D01*
X444512D01*
Y460724D01*
D02*
G37*
G36*
X389012D02*
X377988D01*
Y451276D01*
X379240D01*
X379775Y449701D01*
X379343Y449369D01*
X378586Y448383D01*
X378110Y447233D01*
X377947Y446000D01*
X378110Y444767D01*
X378586Y443617D01*
X379343Y442630D01*
X380330Y441873D01*
X380381Y441852D01*
Y440148D01*
X380330Y440127D01*
X379343Y439369D01*
X378586Y438383D01*
X378110Y437233D01*
X377947Y436000D01*
X378110Y434767D01*
X378586Y433617D01*
X379343Y432630D01*
X380330Y431873D01*
X380381Y431852D01*
Y430148D01*
X380330Y430127D01*
X379343Y429369D01*
X378586Y428383D01*
X378110Y427233D01*
X378103Y427181D01*
X383500D01*
X388897D01*
X388890Y427233D01*
X388414Y428383D01*
X387657Y429369D01*
X386670Y430127D01*
X386619Y430148D01*
Y431852D01*
X386670Y431873D01*
X387657Y432630D01*
X388414Y433617D01*
X388890Y434767D01*
X389053Y436000D01*
X388890Y437233D01*
X388414Y438383D01*
X387657Y439369D01*
X386670Y440127D01*
X386619Y440148D01*
Y441852D01*
X386670Y441873D01*
X387657Y442630D01*
X388414Y443617D01*
X388890Y444767D01*
X389053Y446000D01*
X388890Y447233D01*
X388414Y448383D01*
X387657Y449369D01*
X387225Y449701D01*
X387760Y451276D01*
X389012D01*
Y460724D01*
D02*
G37*
G36*
X459484Y437233D02*
X457516D01*
X456334Y437078D01*
X455232Y436622D01*
X454287Y435896D01*
X453561Y434950D01*
X453105Y433849D01*
X452949Y432667D01*
X453105Y431485D01*
X453561Y430383D01*
X454287Y429438D01*
X455232Y428712D01*
X455698Y428519D01*
Y426814D01*
X455232Y426621D01*
X454287Y425896D01*
X453561Y424950D01*
X453105Y423849D01*
X453105Y423848D01*
X458500D01*
X463895D01*
X463895Y423849D01*
X463439Y424950D01*
X462713Y425896D01*
X461768Y426621D01*
X461302Y426814D01*
Y428519D01*
X461768Y428712D01*
X462713Y429438D01*
X463439Y430383D01*
X463895Y431485D01*
X464051Y432667D01*
X463895Y433849D01*
X463439Y434950D01*
X462713Y435896D01*
X461768Y436622D01*
X460666Y437078D01*
X459484Y437233D01*
D02*
G37*
G36*
X388897Y424819D02*
X383500D01*
X378103D01*
X378110Y424767D01*
X378586Y423617D01*
X379343Y422631D01*
X380330Y421873D01*
X380381Y421852D01*
Y420148D01*
X380330Y420127D01*
X379343Y419370D01*
X378586Y418383D01*
X378110Y417233D01*
X377947Y416000D01*
X378110Y414767D01*
X378586Y413617D01*
X379343Y412631D01*
X379955Y412161D01*
X380030Y410589D01*
X379986Y410397D01*
X379060Y409533D01*
X377334D01*
X375184Y411684D01*
X374608Y412125D01*
X373938Y412403D01*
X373218Y412498D01*
X371597D01*
X371116Y413018D01*
X370575Y414073D01*
X370790Y414872D01*
Y416076D01*
X370478Y417240D01*
X369876Y418283D01*
X369024Y419135D01*
X367981Y419737D01*
X366817Y420049D01*
X365613D01*
X364449Y419737D01*
X363406Y419135D01*
X362554Y418283D01*
X361952Y417240D01*
X361640Y416076D01*
Y414872D01*
X361854Y414073D01*
X361313Y413018D01*
X360832Y412498D01*
X356122D01*
X353781Y414839D01*
X353790Y414872D01*
Y416076D01*
X353478Y417240D01*
X352875Y418283D01*
X352024Y419135D01*
X350981Y419737D01*
X349817Y420049D01*
X348612D01*
X347449Y419737D01*
X346406Y419135D01*
X345554Y418283D01*
X344952Y417240D01*
X344640Y416076D01*
Y414872D01*
X344952Y413708D01*
X345554Y412665D01*
X346406Y411813D01*
X347449Y411211D01*
X348612Y410899D01*
X349817D01*
X349850Y410908D01*
X353005Y407753D01*
X353581Y407311D01*
X354251Y407033D01*
X354971Y406938D01*
X372067D01*
X374217Y404788D01*
X374793Y404346D01*
X375464Y404068D01*
X376183Y403974D01*
X378438D01*
X378586Y403617D01*
X379343Y402631D01*
X380330Y401873D01*
X380381Y401852D01*
Y400148D01*
X380330Y400127D01*
X379343Y399370D01*
X378586Y398383D01*
X378110Y397233D01*
X377947Y396000D01*
X378110Y394767D01*
X378586Y393617D01*
X379343Y392631D01*
X380330Y391873D01*
X380381Y391852D01*
Y390148D01*
X380330Y390127D01*
X379343Y389370D01*
X378586Y388383D01*
X378110Y387233D01*
X377947Y386000D01*
X378045Y385263D01*
X373015Y380234D01*
X371441Y380886D01*
Y388173D01*
X369869D01*
X369259Y389586D01*
X369271Y389748D01*
X370142Y390416D01*
X370868Y391362D01*
X371324Y392463D01*
X371324Y392464D01*
X365929D01*
X360533D01*
X360534Y392463D01*
X360990Y391362D01*
X361716Y390416D01*
X362587Y389748D01*
X362599Y389586D01*
X361988Y388173D01*
X360417D01*
Y379118D01*
X369672D01*
X370324Y377543D01*
X368982Y376200D01*
X363511D01*
X362792Y376105D01*
X362121Y375828D01*
X361545Y375386D01*
X350510Y364350D01*
X343417D01*
Y355295D01*
X344988D01*
X345599Y353881D01*
X345587Y353720D01*
X344716Y353052D01*
X343990Y352106D01*
X343534Y351005D01*
X343533Y351004D01*
X348929D01*
X354324D01*
X354324Y351005D01*
X353868Y352106D01*
X353142Y353052D01*
X352271Y353720D01*
X352259Y353881D01*
X352869Y355295D01*
X354441D01*
Y360419D01*
X359175Y365153D01*
X360417Y364168D01*
Y355295D01*
X361988D01*
X362599Y353881D01*
X362587Y353720D01*
X361716Y353052D01*
X360990Y352106D01*
X360534Y351005D01*
X360533Y351004D01*
X365929D01*
X371324D01*
X371324Y351005D01*
X370868Y352106D01*
X370142Y353052D01*
X369271Y353720D01*
X369259Y353881D01*
X369869Y355295D01*
X371441D01*
Y364350D01*
X360599D01*
X359614Y365592D01*
X364662Y370641D01*
X370133D01*
X370852Y370736D01*
X371523Y371013D01*
X372099Y371455D01*
X376392Y375748D01*
X378055Y375184D01*
X378110Y374767D01*
X378586Y373617D01*
X379343Y372631D01*
X380330Y371873D01*
X380381Y371852D01*
Y370148D01*
X380330Y370127D01*
X379343Y369370D01*
X378586Y368383D01*
X378110Y367233D01*
X377947Y366000D01*
X378045Y365263D01*
X374514Y361733D01*
X374072Y361157D01*
X373795Y360487D01*
X373700Y359767D01*
Y348631D01*
X372547Y347478D01*
X371212Y348370D01*
X371324Y348641D01*
X371324Y348641D01*
X365929D01*
X360533D01*
X360534Y348641D01*
X360990Y347539D01*
X361716Y346593D01*
X362027Y346355D01*
X361492Y344780D01*
X353365D01*
X352831Y346355D01*
X353142Y346593D01*
X353868Y347539D01*
X354324Y348641D01*
X354324Y348641D01*
X348929D01*
X343533D01*
X343534Y348641D01*
X343990Y347539D01*
X344716Y346593D01*
X345661Y345868D01*
X346763Y345411D01*
X347945Y345256D01*
X348113D01*
X348457Y344766D01*
X348734Y343681D01*
X334081Y329028D01*
X326988D01*
Y319972D01*
X328559D01*
X329170Y318559D01*
X329158Y318398D01*
X328287Y317729D01*
X327561Y316783D01*
X327105Y315682D01*
X326949Y314500D01*
X327105Y313318D01*
X327561Y312217D01*
X328287Y311271D01*
X329232Y310545D01*
X329698Y310352D01*
Y308648D01*
X329232Y308455D01*
X328287Y307729D01*
X327561Y306783D01*
X327105Y305682D01*
X327105Y305681D01*
X332500D01*
X337895D01*
X337895Y305682D01*
X337439Y306783D01*
X336713Y307729D01*
X335768Y308455D01*
X335302Y308648D01*
Y310352D01*
X335768Y310545D01*
X336713Y311271D01*
X337439Y312217D01*
X337895Y313318D01*
X338051Y314500D01*
X337895Y315682D01*
X337439Y316783D01*
X336713Y317729D01*
X335842Y318398D01*
X335830Y318559D01*
X336440Y319972D01*
X338012D01*
Y325097D01*
X341842Y328927D01*
X343417Y328275D01*
X343417Y327765D01*
Y319972D01*
X344988D01*
X345599Y318559D01*
X345587Y318398D01*
X344716Y317729D01*
X343990Y316783D01*
X343534Y315682D01*
X343378Y314500D01*
X343534Y313318D01*
X343990Y312217D01*
X344716Y311271D01*
X345661Y310545D01*
X346127Y310352D01*
Y308648D01*
X345661Y308455D01*
X344716Y307729D01*
X343990Y306783D01*
X343534Y305682D01*
X343533Y305681D01*
X348929D01*
X354324D01*
X354324Y305682D01*
X353868Y306783D01*
X353142Y307729D01*
X352197Y308455D01*
X351731Y308648D01*
Y310352D01*
X352197Y310545D01*
X353142Y311271D01*
X353868Y312217D01*
X354324Y313318D01*
X354480Y314500D01*
X354324Y315682D01*
X353868Y316783D01*
X353142Y317729D01*
X352271Y318398D01*
X352259Y318559D01*
X352869Y319972D01*
X354441D01*
Y329028D01*
X344722D01*
X344170Y329028D01*
X343518Y330602D01*
X352136Y339220D01*
X371000D01*
X371035Y339225D01*
X371464Y339050D01*
X372340Y338286D01*
X372542Y337951D01*
Y334060D01*
X367510Y329028D01*
X360417D01*
Y319972D01*
X361988D01*
X362599Y318559D01*
X362587Y318398D01*
X361716Y317729D01*
X360990Y316783D01*
X360534Y315682D01*
X360378Y314500D01*
X360534Y313318D01*
X360990Y312217D01*
X361716Y311271D01*
X362661Y310545D01*
X363127Y310352D01*
Y308648D01*
X362661Y308455D01*
X361716Y307729D01*
X360990Y306783D01*
X360534Y305682D01*
X360533Y305681D01*
X365929D01*
X371324D01*
X371324Y305682D01*
X370868Y306783D01*
X370142Y307729D01*
X369197Y308455D01*
X368731Y308648D01*
Y310352D01*
X369197Y310545D01*
X370142Y311271D01*
X370868Y312217D01*
X371324Y313318D01*
X371480Y314500D01*
X371324Y315682D01*
X370868Y316783D01*
X370142Y317729D01*
X369271Y318398D01*
X369259Y318559D01*
X369869Y319972D01*
X371441D01*
Y325097D01*
X377288Y330943D01*
X377729Y331519D01*
X377753Y331577D01*
X379353Y332034D01*
X379866Y331603D01*
X379946Y331350D01*
X379900Y329797D01*
X379343Y329369D01*
X378586Y328383D01*
X378110Y327233D01*
X377947Y326000D01*
X378110Y324767D01*
X378586Y323617D01*
X379343Y322631D01*
X380330Y321873D01*
X380381Y321852D01*
Y320148D01*
X380330Y320127D01*
X379343Y319370D01*
X378586Y318383D01*
X378110Y317233D01*
X377947Y316000D01*
X378110Y314767D01*
X378586Y313617D01*
X379343Y312631D01*
X380330Y311873D01*
X381479Y311397D01*
X382713Y311235D01*
X384287D01*
X385521Y311397D01*
X386670Y311873D01*
X387657Y312631D01*
X388414Y313617D01*
X388890Y314767D01*
X389053Y316000D01*
X388890Y317233D01*
X388414Y318383D01*
X387657Y319370D01*
X386670Y320127D01*
X386619Y320148D01*
Y321852D01*
X386670Y321873D01*
X387657Y322631D01*
X388414Y323617D01*
X388890Y324767D01*
X389053Y326000D01*
X388890Y327233D01*
X388414Y328383D01*
X387657Y329369D01*
X386670Y330127D01*
X386619Y330148D01*
Y331852D01*
X386670Y331873D01*
X387657Y332630D01*
X388414Y333617D01*
X388890Y334767D01*
X389053Y336000D01*
X388890Y337233D01*
X388414Y338383D01*
X387657Y339370D01*
X386670Y340127D01*
X386619Y340148D01*
Y341852D01*
X386670Y341873D01*
X387657Y342631D01*
X388414Y343617D01*
X388890Y344767D01*
X389053Y346000D01*
X388890Y347233D01*
X388414Y348383D01*
X387657Y349370D01*
X386670Y350127D01*
X386619Y350148D01*
Y351852D01*
X386670Y351873D01*
X387657Y352630D01*
X388414Y353617D01*
X388890Y354767D01*
X389053Y356000D01*
X388890Y357233D01*
X388414Y358383D01*
X387657Y359369D01*
X386670Y360127D01*
X386619Y360148D01*
Y361852D01*
X386670Y361873D01*
X387657Y362631D01*
X388414Y363617D01*
X388890Y364767D01*
X389053Y366000D01*
X388890Y367233D01*
X388414Y368383D01*
X387657Y369370D01*
X386670Y370127D01*
X386619Y370148D01*
Y371852D01*
X386670Y371873D01*
X387657Y372631D01*
X388414Y373617D01*
X388890Y374767D01*
X389053Y376000D01*
X388890Y377233D01*
X388414Y378383D01*
X387657Y379369D01*
X386670Y380127D01*
X386619Y380148D01*
Y381852D01*
X386670Y381873D01*
X387657Y382630D01*
X388414Y383617D01*
X388890Y384767D01*
X389053Y386000D01*
X388890Y387233D01*
X388414Y388383D01*
X387657Y389370D01*
X386670Y390127D01*
X386619Y390148D01*
Y391852D01*
X386670Y391873D01*
X387657Y392631D01*
X388414Y393617D01*
X388890Y394767D01*
X389053Y396000D01*
X388890Y397233D01*
X388414Y398383D01*
X387657Y399370D01*
X386670Y400127D01*
X386619Y400148D01*
Y401852D01*
X386670Y401873D01*
X387657Y402631D01*
X388414Y403617D01*
X388890Y404767D01*
X389053Y406000D01*
X388890Y407233D01*
X388414Y408383D01*
X387657Y409370D01*
X386670Y410127D01*
X386619Y410148D01*
Y411852D01*
X386670Y411873D01*
X387657Y412631D01*
X388414Y413617D01*
X388890Y414767D01*
X389053Y416000D01*
X388890Y417233D01*
X388414Y418383D01*
X387657Y419370D01*
X386670Y420127D01*
X386619Y420148D01*
Y421852D01*
X386670Y421873D01*
X387657Y422631D01*
X388414Y423617D01*
X388890Y424767D01*
X388897Y424819D01*
D02*
G37*
G36*
X444397Y444819D02*
X439000D01*
X433603D01*
X433610Y444767D01*
X434086Y443617D01*
X434843Y442630D01*
X435830Y441873D01*
X435881Y441852D01*
Y440148D01*
X435830Y440127D01*
X434843Y439369D01*
X434086Y438383D01*
X433610Y437233D01*
X433447Y436000D01*
X433610Y434767D01*
X434086Y433617D01*
X434843Y432630D01*
X435830Y431873D01*
X435881Y431852D01*
Y430148D01*
X435830Y430127D01*
X434843Y429369D01*
X434086Y428383D01*
X433610Y427233D01*
X433447Y426000D01*
X433610Y424767D01*
X434086Y423617D01*
X434843Y422631D01*
X435830Y421873D01*
X435881Y421852D01*
Y420148D01*
X435830Y420127D01*
X434843Y419370D01*
X434086Y418383D01*
X433610Y417233D01*
X433447Y416000D01*
X433610Y414767D01*
X434086Y413617D01*
X434843Y412631D01*
X435830Y411873D01*
X435881Y411852D01*
Y410148D01*
X435830Y410127D01*
X434843Y409370D01*
X434086Y408383D01*
X433610Y407233D01*
X433447Y406000D01*
X433610Y404767D01*
X434086Y403617D01*
X434843Y402631D01*
X435830Y401873D01*
X435881Y401852D01*
Y400148D01*
X435830Y400127D01*
X434843Y399370D01*
X434086Y398383D01*
X433610Y397233D01*
X433447Y396000D01*
X433610Y394767D01*
X434086Y393617D01*
X434843Y392631D01*
X435830Y391873D01*
X435881Y391852D01*
Y390148D01*
X435830Y390127D01*
X434843Y389370D01*
X434086Y388383D01*
X433610Y387233D01*
X433447Y386000D01*
X433610Y384767D01*
X434086Y383617D01*
X434843Y382630D01*
X435830Y381873D01*
X435881Y381852D01*
Y380148D01*
X435830Y380127D01*
X434843Y379369D01*
X434086Y378383D01*
X433610Y377233D01*
X433447Y376000D01*
X433610Y374767D01*
X434086Y373617D01*
X434843Y372631D01*
X435830Y371873D01*
X435881Y371852D01*
Y370148D01*
X435830Y370127D01*
X434843Y369370D01*
X434086Y368383D01*
X433610Y367233D01*
X433447Y366000D01*
X433610Y364767D01*
X434086Y363617D01*
X434843Y362631D01*
X435830Y361873D01*
X435881Y361852D01*
Y360148D01*
X435830Y360127D01*
X434843Y359369D01*
X434086Y358383D01*
X433610Y357233D01*
X433447Y356000D01*
X433610Y354767D01*
X434086Y353617D01*
X434843Y352630D01*
X435830Y351873D01*
X435881Y351852D01*
Y350148D01*
X435830Y350127D01*
X434843Y349370D01*
X434086Y348383D01*
X433610Y347233D01*
X433447Y346000D01*
X433610Y344767D01*
X434086Y343617D01*
X434843Y342631D01*
X435830Y341873D01*
X435881Y341852D01*
Y340148D01*
X435830Y340127D01*
X434843Y339370D01*
X434086Y338383D01*
X433610Y337233D01*
X433447Y336000D01*
X433610Y334767D01*
X434086Y333617D01*
X434843Y332630D01*
X435830Y331873D01*
X435881Y331852D01*
Y330148D01*
X435830Y330127D01*
X434843Y329369D01*
X434086Y328383D01*
X433610Y327233D01*
X433447Y326000D01*
X433610Y324767D01*
X434086Y323617D01*
X434843Y322631D01*
X435830Y321873D01*
X435881Y321852D01*
Y320148D01*
X435830Y320127D01*
X434843Y319370D01*
X434086Y318383D01*
X433610Y317233D01*
X433447Y316000D01*
X433610Y314767D01*
X434086Y313617D01*
X434843Y312631D01*
X435830Y311873D01*
X436979Y311397D01*
X438213Y311235D01*
X439787D01*
X441021Y311397D01*
X442170Y311873D01*
X443157Y312631D01*
X443914Y313617D01*
X444390Y314767D01*
X444553Y316000D01*
X444390Y317233D01*
X443914Y318383D01*
X443157Y319370D01*
X442170Y320127D01*
X442119Y320148D01*
Y321852D01*
X442170Y321873D01*
X443157Y322631D01*
X443914Y323617D01*
X444390Y324767D01*
X444553Y326000D01*
X444390Y327233D01*
X443914Y328383D01*
X443157Y329369D01*
X442170Y330127D01*
X442119Y330148D01*
Y331852D01*
X442170Y331873D01*
X443157Y332630D01*
X443914Y333617D01*
X444390Y334767D01*
X444553Y336000D01*
X444390Y337233D01*
X443914Y338383D01*
X443157Y339370D01*
X442170Y340127D01*
X442119Y340148D01*
Y341852D01*
X442170Y341873D01*
X443157Y342631D01*
X443610Y343220D01*
X479000D01*
X479719Y343315D01*
X480390Y343593D01*
X480966Y344035D01*
X483965Y347035D01*
X484407Y347610D01*
X484685Y348281D01*
X484780Y349000D01*
Y366965D01*
X484866Y367051D01*
X484966Y367093D01*
X485542Y367534D01*
X493082Y375075D01*
X493352Y375003D01*
X494648D01*
X495899Y375338D01*
X497022Y375986D01*
X497938Y376902D01*
X498586Y378024D01*
X498921Y379276D01*
Y380572D01*
X498586Y381823D01*
X497938Y382946D01*
X497022Y383862D01*
X495899Y384510D01*
X494648Y384845D01*
X493352D01*
X492100Y384510D01*
X490978Y383862D01*
X490062Y382946D01*
X489414Y381823D01*
X489079Y380572D01*
Y379276D01*
X489151Y379006D01*
X482094Y371949D01*
X481994Y371907D01*
X481418Y371465D01*
X480034Y370082D01*
X479593Y369506D01*
X479315Y368836D01*
X479220Y368116D01*
Y361344D01*
X477645Y360692D01*
X477337Y361000D01*
X476294Y361603D01*
X475709Y361759D01*
Y357340D01*
Y352920D01*
X476294Y353077D01*
X477337Y353679D01*
X477645Y353988D01*
X479220Y353335D01*
Y350151D01*
X477849Y348780D01*
X443610D01*
X443157Y349370D01*
X442170Y350127D01*
X442119Y350148D01*
Y351852D01*
X442170Y351873D01*
X443157Y352630D01*
X443914Y353617D01*
X444390Y354767D01*
X444553Y356000D01*
X444390Y357233D01*
X443914Y358383D01*
X443157Y359369D01*
X442170Y360127D01*
X442119Y360148D01*
Y361852D01*
X442170Y361873D01*
X443157Y362631D01*
X443914Y363617D01*
X444390Y364767D01*
X444553Y366000D01*
X444390Y367233D01*
X443914Y368383D01*
X443157Y369370D01*
X442170Y370127D01*
X442119Y370148D01*
Y371852D01*
X442170Y371873D01*
X443157Y372631D01*
X443914Y373617D01*
X444390Y374767D01*
X444553Y376000D01*
X444390Y377233D01*
X443914Y378383D01*
X443157Y379369D01*
X442170Y380127D01*
X442119Y380148D01*
Y381852D01*
X442170Y381873D01*
X443157Y382630D01*
X443914Y383617D01*
X444390Y384767D01*
X444553Y386000D01*
X444455Y386737D01*
X450464Y392746D01*
X450906Y393321D01*
X451184Y393992D01*
X451278Y394711D01*
Y401154D01*
X451413Y401244D01*
X452988Y400402D01*
Y398139D01*
X464012D01*
Y407194D01*
X462440D01*
X461830Y408608D01*
X461842Y408769D01*
X462713Y409438D01*
X463439Y410383D01*
X463895Y411485D01*
X464051Y412667D01*
X463895Y413849D01*
X463439Y414950D01*
X462713Y415896D01*
X461768Y416621D01*
X461302Y416814D01*
Y418519D01*
X461768Y418712D01*
X462713Y419438D01*
X463439Y420383D01*
X463895Y421485D01*
X463895Y421486D01*
X458500D01*
X453105D01*
X453105Y421485D01*
X453561Y420383D01*
X454287Y419438D01*
X455232Y418712D01*
X455698Y418519D01*
Y416814D01*
X455232Y416621D01*
X454287Y415896D01*
X453561Y414950D01*
X453105Y413849D01*
X452949Y412667D01*
X453023Y412105D01*
X446533Y405615D01*
X446092Y405040D01*
X446006Y404979D01*
X444485Y405484D01*
X444553Y406000D01*
X444390Y407233D01*
X443914Y408383D01*
X443157Y409370D01*
X442170Y410127D01*
X442119Y410148D01*
Y411852D01*
X442170Y411873D01*
X443157Y412631D01*
X443914Y413617D01*
X444390Y414767D01*
X444553Y416000D01*
X444390Y417233D01*
X443914Y418383D01*
X443157Y419370D01*
X442170Y420127D01*
X442119Y420148D01*
Y421852D01*
X442170Y421873D01*
X443157Y422631D01*
X443914Y423617D01*
X444390Y424767D01*
X444553Y426000D01*
X444390Y427233D01*
X443914Y428383D01*
X443157Y429369D01*
X442170Y430127D01*
X442119Y430148D01*
Y431852D01*
X442170Y431873D01*
X443157Y432630D01*
X443914Y433617D01*
X444390Y434767D01*
X444553Y436000D01*
X444390Y437233D01*
X443914Y438383D01*
X443157Y439369D01*
X442170Y440127D01*
X442119Y440148D01*
Y441852D01*
X442170Y441873D01*
X443157Y442630D01*
X443914Y443617D01*
X444390Y444767D01*
X444397Y444819D01*
D02*
G37*
G36*
X475130Y404434D02*
X473925D01*
X472762Y404122D01*
X471719Y403520D01*
X470867Y402668D01*
X470265Y401625D01*
X469953Y400462D01*
Y399257D01*
X470265Y398094D01*
X470867Y397050D01*
X471719Y396199D01*
X472762Y395596D01*
X473925Y395285D01*
X475130D01*
X476294Y395596D01*
X477337Y396199D01*
X478189Y397050D01*
X478791Y398094D01*
X479103Y399257D01*
Y400462D01*
X478791Y401625D01*
X478189Y402668D01*
X477337Y403520D01*
X476294Y404122D01*
X475130Y404434D01*
D02*
G37*
G36*
X367110Y398186D02*
Y394826D01*
X371324D01*
X371324Y394827D01*
X370868Y395929D01*
X370142Y396874D01*
X369197Y397600D01*
X368095Y398056D01*
X367110Y398186D01*
D02*
G37*
G36*
X350110D02*
Y394826D01*
X354324D01*
X354324Y394827D01*
X353868Y395929D01*
X353142Y396874D01*
X352197Y397600D01*
X351095Y398056D01*
X350110Y398186D01*
D02*
G37*
G36*
X364748Y398186D02*
X363763Y398056D01*
X362661Y397600D01*
X361716Y396874D01*
X360990Y395929D01*
X360534Y394827D01*
X360533Y394826D01*
X364748D01*
Y398186D01*
D02*
G37*
G36*
X347748D02*
X346763Y398056D01*
X345661Y397600D01*
X344716Y396874D01*
X343990Y395929D01*
X343534Y394827D01*
X343533Y394826D01*
X347748D01*
Y398186D01*
D02*
G37*
G36*
X459681Y383874D02*
Y380514D01*
X463895D01*
X463895Y380515D01*
X463439Y381617D01*
X462713Y382562D01*
X461768Y383288D01*
X460666Y383744D01*
X459681Y383874D01*
D02*
G37*
G36*
X457319Y383874D02*
X456334Y383744D01*
X455232Y383288D01*
X454287Y382562D01*
X453561Y381617D01*
X453105Y380515D01*
X453105Y380514D01*
X457319D01*
Y383874D01*
D02*
G37*
G36*
X354324Y392464D02*
X348929D01*
X343533D01*
X343534Y392463D01*
X343990Y391362D01*
X344716Y390416D01*
X345587Y389748D01*
X345599Y389586D01*
X344988Y388173D01*
X343417D01*
Y379118D01*
X354441D01*
Y388173D01*
X352869D01*
X352259Y389586D01*
X352271Y389748D01*
X353142Y390416D01*
X353868Y391362D01*
X354324Y392463D01*
X354324Y392464D01*
D02*
G37*
G36*
X473347Y361759D02*
X472762Y361603D01*
X471719Y361000D01*
X470867Y360149D01*
X470265Y359105D01*
X470108Y358521D01*
X473347D01*
Y361759D01*
D02*
G37*
G36*
X494648Y365160D02*
X493352D01*
X492100Y364825D01*
X490978Y364177D01*
X490062Y363261D01*
X489414Y362138D01*
X489079Y360887D01*
Y359591D01*
X489414Y358339D01*
X490062Y357217D01*
X490978Y356301D01*
X492100Y355653D01*
X493352Y355318D01*
X494648D01*
X495899Y355653D01*
X497022Y356301D01*
X497938Y357217D01*
X498586Y358339D01*
X498921Y359591D01*
Y360887D01*
X498586Y362138D01*
X497938Y363261D01*
X497022Y364177D01*
X495899Y364825D01*
X494648Y365160D01*
D02*
G37*
G36*
X463895Y378152D02*
X458500D01*
X453105D01*
X453105Y378151D01*
X453561Y377050D01*
X454287Y376104D01*
X455232Y375378D01*
X455698Y375186D01*
Y373481D01*
X455232Y373288D01*
X454287Y372562D01*
X453561Y371617D01*
X453105Y370515D01*
X452949Y369333D01*
X453105Y368151D01*
X453561Y367050D01*
X454287Y366104D01*
X455158Y365436D01*
X455170Y365275D01*
X454560Y363861D01*
X452988D01*
Y354806D01*
X464012D01*
Y363861D01*
X462440D01*
X461830Y365275D01*
X461842Y365436D01*
X462713Y366104D01*
X463439Y367050D01*
X463895Y368151D01*
X464051Y369333D01*
X463895Y370515D01*
X463439Y371617D01*
X462713Y372562D01*
X461768Y373288D01*
X461302Y373481D01*
Y375186D01*
X461768Y375378D01*
X462713Y376104D01*
X463439Y377050D01*
X463895Y378151D01*
X463895Y378152D01*
D02*
G37*
G36*
X473347Y356159D02*
X470108D01*
X470265Y355574D01*
X470867Y354531D01*
X471719Y353679D01*
X472762Y353077D01*
X473347Y352920D01*
Y356159D01*
D02*
G37*
G36*
X338012Y364350D02*
X326988D01*
Y355295D01*
X328559D01*
X329170Y353881D01*
X329158Y353720D01*
X328287Y353052D01*
X327561Y352106D01*
X327105Y351005D01*
X327105Y351004D01*
X332500D01*
X337895D01*
X337895Y351005D01*
X337439Y352106D01*
X336713Y353052D01*
X335842Y353720D01*
X335830Y353881D01*
X336440Y355295D01*
X338012D01*
Y364350D01*
D02*
G37*
G36*
X337895Y348641D02*
X333681D01*
Y345282D01*
X334666Y345411D01*
X335768Y345868D01*
X336713Y346593D01*
X337439Y347539D01*
X337895Y348641D01*
X337895Y348641D01*
D02*
G37*
G36*
X331319D02*
X327105D01*
X327105Y348641D01*
X327561Y347539D01*
X328287Y346593D01*
X329232Y345868D01*
X330334Y345411D01*
X331319Y345282D01*
Y348641D01*
D02*
G37*
G36*
X459681Y340541D02*
Y337181D01*
X463895D01*
X463895Y337182D01*
X463439Y338283D01*
X462713Y339229D01*
X461768Y339955D01*
X460666Y340411D01*
X459681Y340541D01*
D02*
G37*
G36*
X457319D02*
X456334Y340411D01*
X455232Y339955D01*
X454287Y339229D01*
X453561Y338283D01*
X453105Y337182D01*
X453105Y337181D01*
X457319D01*
Y340541D01*
D02*
G37*
G36*
X463895Y334819D02*
X458500D01*
X453105D01*
X453105Y334818D01*
X453561Y333717D01*
X454287Y332771D01*
X455232Y332045D01*
X455698Y331852D01*
Y330148D01*
X455232Y329955D01*
X454287Y329229D01*
X453561Y328283D01*
X453105Y327182D01*
X452949Y326000D01*
X453105Y324818D01*
X453561Y323717D01*
X454287Y322771D01*
X455158Y322102D01*
X455170Y321941D01*
X454560Y320528D01*
X452988D01*
Y311472D01*
X464012D01*
Y320528D01*
X462440D01*
X461830Y321941D01*
X461842Y322102D01*
X462713Y322771D01*
X463439Y323717D01*
X463895Y324818D01*
X464051Y326000D01*
X463895Y327182D01*
X463439Y328283D01*
X462713Y329229D01*
X461768Y329955D01*
X461302Y330148D01*
Y331852D01*
X461768Y332045D01*
X462713Y332771D01*
X463439Y333717D01*
X463895Y334818D01*
X463895Y334819D01*
D02*
G37*
G36*
X371324Y303319D02*
X367110D01*
Y299959D01*
X368095Y300089D01*
X369197Y300545D01*
X370142Y301271D01*
X370868Y302217D01*
X371324Y303318D01*
X371324Y303319D01*
D02*
G37*
G36*
X354324D02*
X350110D01*
Y299959D01*
X351095Y300089D01*
X352197Y300545D01*
X353142Y301271D01*
X353868Y302217D01*
X354324Y303318D01*
X354324Y303319D01*
D02*
G37*
G36*
X364748D02*
X360533D01*
X360534Y303318D01*
X360990Y302217D01*
X361716Y301271D01*
X362661Y300545D01*
X363763Y300089D01*
X364748Y299959D01*
Y303319D01*
D02*
G37*
G36*
X347748D02*
X343533D01*
X343534Y303318D01*
X343990Y302217D01*
X344716Y301271D01*
X345661Y300545D01*
X346763Y300089D01*
X347748Y299959D01*
Y303319D01*
D02*
G37*
%LPD*%
D18*
X382713Y366000D02*
X383500D01*
X376480Y359767D02*
X382713Y366000D01*
X376480Y347480D02*
Y359767D01*
X371000Y342000D02*
X376480Y347480D01*
X350984Y342000D02*
X371000D01*
X333484Y324500D02*
X350984Y342000D01*
X332500Y324500D02*
X333484D01*
X382713Y346000D02*
X383500D01*
X375322Y338610D02*
X382713Y346000D01*
X375322Y332909D02*
Y338610D01*
X366913Y324500D02*
X375322Y332909D01*
X365929Y324500D02*
X366913D01*
X382713Y386000D02*
X383500D01*
X370133Y373421D02*
X382713Y386000D01*
X363511Y373421D02*
X370133D01*
X349913Y359823D02*
X363511Y373421D01*
X348929Y359823D02*
X349913D01*
X348500Y359000D02*
X348929Y359429D01*
Y359823D01*
X382747Y406753D02*
X383500Y406000D01*
X376183Y406753D02*
X382747D01*
X373218Y409718D02*
X376183Y406753D01*
X354971Y409718D02*
X373218D01*
X349215Y415474D02*
X354971Y409718D01*
X439000Y346000D02*
X479000D01*
X482000Y349000D01*
Y368116D01*
X483384Y369500D01*
X483576D01*
X493500Y379424D01*
Y380000D01*
X493576Y379924D01*
X494000D01*
X439000Y386000D02*
X439787D01*
X448499Y394711D01*
Y403650D01*
X457516Y412667D01*
X458500D01*
D19*
X439000Y316000D02*
D03*
Y326000D02*
D03*
Y336000D02*
D03*
Y346000D02*
D03*
Y356000D02*
D03*
Y366000D02*
D03*
Y376000D02*
D03*
Y386000D02*
D03*
Y396000D02*
D03*
Y406000D02*
D03*
Y416000D02*
D03*
Y426000D02*
D03*
Y436000D02*
D03*
Y446000D02*
D03*
X383500Y316000D02*
D03*
Y326000D02*
D03*
Y336000D02*
D03*
Y346000D02*
D03*
Y356000D02*
D03*
Y366000D02*
D03*
Y376000D02*
D03*
Y386000D02*
D03*
Y396000D02*
D03*
Y406000D02*
D03*
Y416000D02*
D03*
Y426000D02*
D03*
Y436000D02*
D03*
Y446000D02*
D03*
D20*
X439000Y456000D02*
D03*
X383500D02*
D03*
D21*
X458500Y464500D02*
D03*
X332500Y304500D02*
D03*
Y314500D02*
D03*
X458500Y336000D02*
D03*
Y326000D02*
D03*
Y379333D02*
D03*
Y369333D02*
D03*
X348929Y304500D02*
D03*
Y314500D02*
D03*
X365929Y349823D02*
D03*
X348929D02*
D03*
X332500D02*
D03*
X365929Y393645D02*
D03*
X348929D02*
D03*
X458500Y412667D02*
D03*
Y422667D02*
D03*
Y432667D02*
D03*
X365929Y304500D02*
D03*
Y314500D02*
D03*
D22*
X458500Y454500D02*
D03*
X332500Y324500D02*
D03*
X458500Y316000D02*
D03*
Y359333D02*
D03*
X348929Y324500D02*
D03*
X365929Y359823D02*
D03*
X348929D02*
D03*
X332500D02*
D03*
X365929Y383645D02*
D03*
X348929D02*
D03*
X458500Y402667D02*
D03*
X365929Y324500D02*
D03*
D23*
X488189Y291339D02*
D03*
Y468504D02*
D03*
X330709Y291339D02*
D03*
Y468504D02*
D03*
X474528Y399859D02*
D03*
Y357340D02*
D03*
X366215Y457994D02*
D03*
Y415474D02*
D03*
X349215Y457994D02*
D03*
Y415474D02*
D03*
D24*
X494000Y360239D02*
D03*
Y379924D02*
D03*
M02*
