G04*
G04 #@! TF.GenerationSoftware,Altium Limited,Altium Designer,25.8.1 (18)*
G04*
G04 Layer_Color=65535*
%FSLAX25Y25*%
%MOIN*%
G70*
G04*
G04 #@! TF.SameCoordinates,8EC05070-4222-424C-B7D2-10FEA1704A48*
G04*
G04*
G04 #@! TF.FilePolarity,Positive*
G04*
G01*
G75*
%ADD10C,0.00787*%
%ADD11C,0.01000*%
D10*
X383500Y311000D02*
X440000D01*
X379000Y461000D02*
X442500D01*
X434000Y311000D02*
Y461000D01*
X444000Y311000D02*
Y453500D01*
Y461000D01*
X434000D02*
X444000D01*
X434000Y311000D02*
X444000D01*
X378500D02*
Y461000D01*
X388500Y311000D02*
Y453500D01*
Y461000D01*
X378500D02*
X388500D01*
X378500Y311000D02*
X388500D01*
X397000D02*
Y325000D01*
X424500D01*
Y311000D02*
Y325000D01*
X424000Y311000D02*
X424500D01*
X401500D02*
Y321000D01*
X420000D01*
Y311000D02*
Y321000D01*
X453500Y449500D02*
Y469500D01*
Y449500D02*
X463500D01*
Y469500D01*
X453500D02*
X463500D01*
X337500Y299500D02*
Y329500D01*
X327500D02*
X337500D01*
X327500Y299500D02*
X337500D01*
X327500D02*
Y329500D01*
X453500Y311000D02*
Y341000D01*
Y311000D02*
X463500D01*
X453500Y341000D02*
X463500D01*
Y311000D02*
Y341000D01*
X453500Y354333D02*
Y384333D01*
Y354333D02*
X463500D01*
X453500Y384333D02*
X463500D01*
Y354333D02*
Y384333D01*
X486126Y354333D02*
Y385829D01*
Y354333D02*
X501874D01*
Y385829D01*
X486126D02*
X501874D01*
X474528Y390599D02*
Y392379D01*
Y364820D02*
Y366599D01*
X478528D02*
Y390599D01*
X470528D02*
X478528D01*
X470528Y366599D02*
Y390599D01*
Y366599D02*
X478528D01*
X366215Y448734D02*
Y450513D01*
Y422954D02*
Y424734D01*
X370215D02*
Y448734D01*
X362215D02*
X370215D01*
X362215Y424734D02*
Y448734D01*
Y424734D02*
X370215D01*
X353929Y299500D02*
Y329500D01*
X343929D02*
X353929D01*
X343929Y299500D02*
X353929D01*
X343929D02*
Y329500D01*
X370929Y344823D02*
Y364823D01*
X360929D02*
X370929D01*
X360929Y344823D02*
Y364823D01*
Y344823D02*
X370929D01*
X353929D02*
Y364823D01*
X343929D02*
X353929D01*
X343929Y344823D02*
Y364823D01*
Y344823D02*
X353929D01*
X337500D02*
Y364823D01*
X327500D02*
X337500D01*
X327500Y344823D02*
Y364823D01*
Y344823D02*
X337500D01*
X360929Y378645D02*
Y398645D01*
Y378645D02*
X370929D01*
Y398645D01*
X360929D02*
X370929D01*
X349215Y448734D02*
Y450513D01*
Y422954D02*
Y424734D01*
X353215D02*
Y448734D01*
X345215D02*
X353215D01*
X345215Y424734D02*
Y448734D01*
Y424734D02*
X353215D01*
X343929Y378645D02*
Y398645D01*
Y378645D02*
X353929D01*
Y398645D01*
X343929D02*
X353929D01*
X453500Y437667D02*
X463500D01*
Y397667D02*
Y437667D01*
X453500Y397667D02*
Y437667D01*
Y397667D02*
X463500D01*
X370929Y299500D02*
Y329500D01*
X360929D02*
X370929D01*
X360929Y299500D02*
X370929D01*
X360929D02*
Y329500D01*
X379000Y463000D02*
Y466673D01*
X380837Y468510D01*
X382673Y466673D01*
Y463000D01*
Y465755D01*
X379000D01*
X384510Y466673D02*
Y463000D01*
Y464837D01*
X385428Y465755D01*
X386347Y466673D01*
X387265D01*
X393693Y468510D02*
Y463000D01*
X390938D01*
X390020Y463918D01*
Y465755D01*
X390938Y466673D01*
X393693D01*
X395530D02*
Y463918D01*
X396448Y463000D01*
X399203D01*
Y466673D01*
X401040Y463000D02*
X402877D01*
X401959D01*
Y466673D01*
X401040D01*
X405632Y463000D02*
Y466673D01*
X408387D01*
X409305Y465755D01*
Y463000D01*
X412060D02*
X413897D01*
X414815Y463918D01*
Y465755D01*
X413897Y466673D01*
X412060D01*
X411142Y465755D01*
Y463918D01*
X412060Y463000D01*
X422162D02*
Y468510D01*
X425835Y463000D01*
Y468510D01*
X428590Y466673D02*
X430427D01*
X431345Y465755D01*
Y463000D01*
X428590D01*
X427672Y463918D01*
X428590Y464837D01*
X431345D01*
X433182Y463000D02*
Y466673D01*
X435937D01*
X436855Y465755D01*
Y463000D01*
X439610D02*
X441447D01*
X442365Y463918D01*
Y465755D01*
X441447Y466673D01*
X439610D01*
X438692Y465755D01*
Y463918D01*
X439610Y463000D01*
D11*
X498729Y457334D02*
Y460000D01*
X494730D01*
Y457334D01*
X496729Y460000D02*
Y458667D01*
X498062Y453336D02*
X498729Y454002D01*
Y455335D01*
X498062Y456001D01*
X495396D01*
X494730Y455335D01*
Y454002D01*
X495396Y453336D01*
X498062Y449337D02*
X498729Y450003D01*
Y451336D01*
X498062Y452003D01*
X497396D01*
X496729Y451336D01*
Y450003D01*
X496063Y449337D01*
X495396D01*
X494730Y450003D01*
Y451336D01*
X495396Y452003D01*
X498729Y445338D02*
Y448004D01*
X494730D01*
Y445338D01*
X496729Y448004D02*
Y446671D01*
X498062Y437341D02*
X498729Y438007D01*
Y439340D01*
X498062Y440006D01*
X495396D01*
X494730Y439340D01*
Y438007D01*
X495396Y437341D01*
X494730Y435341D02*
Y434008D01*
X495396Y433342D01*
X496729D01*
X497396Y434008D01*
Y435341D01*
X496729Y436008D01*
X495396D01*
X494730Y435341D01*
Y432009D02*
X497396D01*
Y431343D01*
X496729Y430676D01*
X494730D01*
X496729D01*
X497396Y430010D01*
X496729Y429343D01*
X494730D01*
X493397Y428010D02*
X497396D01*
Y426011D01*
X496729Y425345D01*
X495396D01*
X494730Y426011D01*
Y428010D01*
Y422012D02*
Y423345D01*
X495396Y424012D01*
X496729D01*
X497396Y423345D01*
Y422012D01*
X496729Y421346D01*
X496063D01*
Y424012D01*
X498062Y419347D02*
X497396D01*
Y420013D01*
Y418680D01*
Y419347D01*
X495396D01*
X494730Y418680D01*
Y416681D02*
Y415348D01*
Y416014D01*
X497396D01*
Y416681D01*
X498062Y412682D02*
X497396D01*
Y413348D01*
Y412015D01*
Y412682D01*
X495396D01*
X494730Y412015D01*
Y410016D02*
Y408683D01*
Y409350D01*
X497396D01*
Y410016D01*
X494730Y406017D02*
Y404684D01*
X495396Y404018D01*
X496729D01*
X497396Y404684D01*
Y406017D01*
X496729Y406684D01*
X495396D01*
X494730Y406017D01*
Y402685D02*
X497396D01*
Y400686D01*
X496729Y400019D01*
X494730D01*
X490197Y460000D02*
Y457334D01*
Y458667D01*
X486198D01*
X490197Y456001D02*
X486198D01*
X488198D01*
X488864Y455335D01*
Y454002D01*
X488198Y453336D01*
X486198D01*
Y450003D02*
Y451336D01*
X486865Y452003D01*
X488198D01*
X488864Y451336D01*
Y450003D01*
X488198Y449337D01*
X487531D01*
Y452003D01*
X486198Y444005D02*
X490197D01*
Y442006D01*
X489531Y441339D01*
X488198D01*
X487531Y442006D01*
Y444005D01*
Y442672D02*
X486198Y441339D01*
Y438007D02*
Y439340D01*
X486865Y440006D01*
X488198D01*
X488864Y439340D01*
Y438007D01*
X488198Y437341D01*
X487531D01*
Y440006D01*
X486198Y436008D02*
Y434008D01*
X486865Y433342D01*
X487531Y434008D01*
Y435341D01*
X488198Y436008D01*
X488864Y435341D01*
Y433342D01*
X486198Y432009D02*
Y430676D01*
Y431343D01*
X488864D01*
Y432009D01*
X486198Y428677D02*
Y426677D01*
X486865Y426011D01*
X487531Y426677D01*
Y428010D01*
X488198Y428677D01*
X488864Y428010D01*
Y426011D01*
X489531Y424012D02*
X488864D01*
Y424678D01*
Y423345D01*
Y424012D01*
X486865D01*
X486198Y423345D01*
Y420679D02*
Y419347D01*
X486865Y418680D01*
X488198D01*
X488864Y419347D01*
Y420679D01*
X488198Y421346D01*
X486865D01*
X486198Y420679D01*
X488864Y417347D02*
X486198D01*
X487531D01*
X488198Y416681D01*
X488864Y416014D01*
Y415348D01*
X486198Y413348D02*
Y411349D01*
X486865Y410683D01*
X487531Y411349D01*
Y412682D01*
X488198Y413348D01*
X488864Y412682D01*
Y410683D01*
X482332Y460000D02*
X482999Y459334D01*
Y458001D01*
X482332Y457334D01*
X479666D01*
X479000Y458001D01*
Y459334D01*
X479666Y460000D01*
X482332D01*
X479000Y454002D02*
X482999D01*
X480999Y456001D01*
Y453336D01*
X479000Y452003D02*
X481666Y449337D01*
X482332Y448004D02*
X482999Y447337D01*
Y446004D01*
X482332Y445338D01*
X479666D01*
X479000Y446004D01*
Y447337D01*
X479666Y448004D01*
X482332D01*
X479666Y444005D02*
X479000Y443339D01*
Y442006D01*
X479666Y441339D01*
X482332D01*
X482999Y442006D01*
Y443339D01*
X482332Y444005D01*
X481666D01*
X480999Y443339D01*
Y441339D01*
X479000Y440006D02*
X481666Y437341D01*
X479000Y433342D02*
Y436008D01*
X481666Y433342D01*
X482332D01*
X482999Y434008D01*
Y435341D01*
X482332Y436008D01*
X482999Y429343D02*
Y432009D01*
X480999D01*
X481666Y430676D01*
Y430010D01*
X480999Y429343D01*
X479666D01*
X479000Y430010D01*
Y431343D01*
X479666Y432009D01*
X454100Y472900D02*
Y478898D01*
X457099D01*
X458099Y477898D01*
Y475899D01*
X457099Y474899D01*
X454100D01*
X464097Y472900D02*
X460098D01*
X464097Y476899D01*
Y477898D01*
X463097Y478898D01*
X461098D01*
X460098Y477898D01*
X379100Y478298D02*
Y473300D01*
X380100Y472300D01*
X382099D01*
X383099Y473300D01*
Y478298D01*
X385098Y472300D02*
X387097D01*
X386098D01*
Y478298D01*
X385098Y477298D01*
X470450Y406299D02*
Y412297D01*
X473449D01*
X474449Y411298D01*
Y409299D01*
X473449Y408299D01*
X470450D01*
X472449D02*
X474449Y406299D01*
X476448Y411298D02*
X477448Y412297D01*
X479447D01*
X480447Y411298D01*
Y410298D01*
X479447Y409299D01*
X478447D01*
X479447D01*
X480447Y408299D01*
Y407299D01*
X479447Y406299D01*
X477448D01*
X476448Y407299D01*
X345100Y464434D02*
Y470432D01*
X348099D01*
X349099Y469432D01*
Y467433D01*
X348099Y466433D01*
X345100D01*
X347099D02*
X349099Y464434D01*
X355097D02*
X351098D01*
X355097Y468433D01*
Y469432D01*
X354097Y470432D01*
X352098D01*
X351098Y469432D01*
X362100Y464434D02*
Y470432D01*
X365099D01*
X366099Y469432D01*
Y467433D01*
X365099Y466433D01*
X362100D01*
X364099D02*
X366099Y464434D01*
X368098D02*
X370097D01*
X369098D01*
Y470432D01*
X368098Y469432D01*
X454100Y387733D02*
Y393731D01*
X457099D01*
X458099Y392732D01*
Y390732D01*
X457099Y389733D01*
X454100D01*
X460098Y387733D02*
X462097D01*
X461098D01*
Y393731D01*
X460098Y392732D01*
X469095Y387733D02*
X465096D01*
X469095Y391732D01*
Y392732D01*
X468095Y393731D01*
X466096D01*
X465096Y392732D01*
X454100Y344400D02*
Y350398D01*
X457099D01*
X458099Y349398D01*
Y347399D01*
X457099Y346399D01*
X454100D01*
X460098Y344400D02*
X462097D01*
X461098D01*
Y350398D01*
X460098Y349398D01*
X465096Y344400D02*
X467096D01*
X466096D01*
Y350398D01*
X465096Y349398D01*
X361500Y332900D02*
Y338898D01*
X364499D01*
X365499Y337898D01*
Y335899D01*
X364499Y334899D01*
X361500D01*
X367498Y332900D02*
X369497D01*
X368498D01*
Y338898D01*
X367498Y337898D01*
X372496D02*
X373496Y338898D01*
X375496D01*
X376495Y337898D01*
Y333900D01*
X375496Y332900D01*
X373496D01*
X372496Y333900D01*
Y337898D01*
X344529Y332900D02*
Y338898D01*
X347528D01*
X348528Y337898D01*
Y335899D01*
X347528Y334899D01*
X344529D01*
X350527Y333900D02*
X351527Y332900D01*
X353526D01*
X354526Y333900D01*
Y337898D01*
X353526Y338898D01*
X351527D01*
X350527Y337898D01*
Y336899D01*
X351527Y335899D01*
X354526D01*
X328100Y332900D02*
Y338898D01*
X331099D01*
X332099Y337898D01*
Y335899D01*
X331099Y334899D01*
X328100D01*
X334098Y337898D02*
X335098Y338898D01*
X337097D01*
X338097Y337898D01*
Y336899D01*
X337097Y335899D01*
X338097Y334899D01*
Y333900D01*
X337097Y332900D01*
X335098D01*
X334098Y333900D01*
Y334899D01*
X335098Y335899D01*
X334098Y336899D01*
Y337898D01*
X335098Y335899D02*
X337097D01*
X361529Y368223D02*
Y374221D01*
X364528D01*
X365528Y373221D01*
Y371222D01*
X364528Y370222D01*
X361529D01*
X367527Y374221D02*
X371526D01*
Y373221D01*
X367527Y369222D01*
Y368223D01*
X344529D02*
Y374221D01*
X347528D01*
X348528Y373221D01*
Y371222D01*
X347528Y370222D01*
X344529D01*
X354526Y374221D02*
X352526Y373221D01*
X350527Y371222D01*
Y369222D01*
X351527Y368223D01*
X353526D01*
X354526Y369222D01*
Y370222D01*
X353526Y371222D01*
X350527D01*
X328100Y368223D02*
Y374221D01*
X331099D01*
X332099Y373221D01*
Y371222D01*
X331099Y370222D01*
X328100D01*
X338097Y374221D02*
X334098D01*
Y371222D01*
X336097Y372221D01*
X337097D01*
X338097Y371222D01*
Y369222D01*
X337097Y368223D01*
X335098D01*
X334098Y369222D01*
X344529Y402045D02*
Y408043D01*
X347528D01*
X348528Y407044D01*
Y405044D01*
X347528Y404044D01*
X344529D01*
X353526Y402045D02*
Y408043D01*
X350527Y405044D01*
X354526D01*
X361529Y402045D02*
Y408043D01*
X364528D01*
X365528Y407044D01*
Y405044D01*
X364528Y404044D01*
X361529D01*
X367527Y407044D02*
X368527Y408043D01*
X370526D01*
X371526Y407044D01*
Y406044D01*
X370526Y405044D01*
X369526D01*
X370526D01*
X371526Y404044D01*
Y403045D01*
X370526Y402045D01*
X368527D01*
X367527Y403045D01*
X454100Y441067D02*
Y447065D01*
X457099D01*
X458099Y446065D01*
Y444066D01*
X457099Y443066D01*
X454100D01*
X460098Y441067D02*
X462097D01*
X461098D01*
Y447065D01*
X460098Y446065D01*
X490699Y394198D02*
X489699Y395198D01*
X487700D01*
X486700Y394198D01*
Y390200D01*
X487700Y389200D01*
X489699D01*
X490699Y390200D01*
X492698Y389200D02*
X494697D01*
X493698D01*
Y395198D01*
X492698Y394198D01*
M02*
