G04*
G04 #@! TF.GenerationSoftware,Altium Limited,Altium Designer,25.8.1 (18)*
G04*
G04 Layer_Physical_Order=1*
G04 Layer_Color=255*
%FSLAX25Y25*%
%MOIN*%
G70*
G04*
G04 #@! TF.SameCoordinates,8EC05070-4222-424C-B7D2-10FEA1704A48*
G04*
G04*
G04 #@! TF.FilePolarity,Positive*
G04*
G01*
G75*
%ADD18C,0.02362*%
%ADD19O,0.07874X0.06299*%
%ADD20R,0.07874X0.06299*%
%ADD21O,0.07874X0.05906*%
%ADD22R,0.07874X0.05906*%
%ADD23C,0.06000*%
%ADD24C,0.06693*%
G36*
X503000Y295500D02*
X494878D01*
X494305Y296358D01*
X493208Y297455D01*
X491919Y298316D01*
X490486Y298910D01*
X488965Y299213D01*
X487414D01*
X485892Y298910D01*
X484459Y298316D01*
X483170Y297455D01*
X482073Y296358D01*
X481500Y295500D01*
X337398D01*
X336825Y296358D01*
X335728Y297455D01*
X334438Y298316D01*
X334156Y298433D01*
X334369Y300050D01*
X334666Y300089D01*
X335768Y300545D01*
X336713Y301271D01*
X337439Y302217D01*
X337895Y303318D01*
X338051Y304500D01*
X337895Y305682D01*
X337439Y306783D01*
X336713Y307729D01*
X335768Y308455D01*
X335302Y308648D01*
Y310352D01*
X335768Y310545D01*
X336713Y311271D01*
X337439Y312217D01*
X337895Y313318D01*
X337895Y313319D01*
X332500D01*
X327105D01*
X327105Y313318D01*
X327561Y312217D01*
X328287Y311271D01*
X329232Y310545D01*
X329698Y310352D01*
Y308648D01*
X329232Y308455D01*
X328287Y307729D01*
X327561Y306783D01*
X327105Y305682D01*
X326949Y304500D01*
X327105Y303318D01*
X327561Y302217D01*
X328287Y301271D01*
X329094Y300651D01*
X329117Y300077D01*
X328853Y298998D01*
X328412Y298910D01*
X326979Y298316D01*
X325689Y297455D01*
X324592Y296358D01*
X324575Y296332D01*
X323000Y296809D01*
Y463033D01*
X324575Y463511D01*
X324592Y463485D01*
X325689Y462388D01*
X326979Y461526D01*
X328412Y460932D01*
X329933Y460630D01*
X331484D01*
X333005Y460932D01*
X334438Y461526D01*
X335728Y462388D01*
X336825Y463485D01*
X337686Y464774D01*
X338280Y466207D01*
X338583Y467728D01*
Y469279D01*
X338280Y470801D01*
X337686Y472234D01*
X336901Y473409D01*
X337004Y473866D01*
X337591Y474984D01*
X481306D01*
X481893Y473866D01*
X481997Y473409D01*
X481211Y472234D01*
X480618Y470801D01*
X480315Y469279D01*
Y467728D01*
X480618Y466207D01*
X481211Y464774D01*
X482073Y463485D01*
X483170Y462388D01*
X484459Y461526D01*
X485892Y460932D01*
X487414Y460630D01*
X488965D01*
X490486Y460932D01*
X491919Y461526D01*
X493208Y462388D01*
X494305Y463485D01*
X495167Y464774D01*
X495760Y466207D01*
X496063Y467728D01*
Y469279D01*
X495760Y470801D01*
X495167Y472234D01*
X494381Y473409D01*
X494485Y473866D01*
X495072Y474984D01*
X503000D01*
Y295500D01*
D02*
G37*
%LPC*%
G36*
X459484Y469067D02*
X457516D01*
X456334Y468911D01*
X455232Y468455D01*
X454287Y467729D01*
X453561Y466783D01*
X453105Y465682D01*
X452949Y464500D01*
X453105Y463318D01*
X453561Y462217D01*
X454287Y461271D01*
X455158Y460602D01*
X455170Y460441D01*
X454560Y459027D01*
X452988D01*
Y458030D01*
X444512D01*
Y460724D01*
X433488D01*
Y451276D01*
X434740D01*
X435275Y449701D01*
X434843Y449369D01*
X434086Y448383D01*
X433610Y447233D01*
X433447Y446000D01*
X433610Y444767D01*
X434086Y443617D01*
X434843Y442630D01*
X435830Y441873D01*
X435881Y441852D01*
Y440148D01*
X435830Y440127D01*
X434843Y439369D01*
X434086Y438383D01*
X433610Y437233D01*
X433447Y436000D01*
X433610Y434767D01*
X434086Y433617D01*
X434843Y432630D01*
X435830Y431873D01*
X435881Y431852D01*
Y430148D01*
X435830Y430127D01*
X434843Y429369D01*
X434086Y428383D01*
X433610Y427233D01*
X433603Y427181D01*
X439000D01*
X444397D01*
X444390Y427233D01*
X443914Y428383D01*
X443157Y429369D01*
X442170Y430127D01*
X442119Y430148D01*
Y431852D01*
X442170Y431873D01*
X443157Y432630D01*
X443914Y433617D01*
X444390Y434767D01*
X444553Y436000D01*
X444390Y437233D01*
X443914Y438383D01*
X443157Y439369D01*
X442170Y440127D01*
X442119Y440148D01*
Y441852D01*
X442170Y441873D01*
X443157Y442630D01*
X443914Y443617D01*
X444390Y444767D01*
X444553Y446000D01*
X444390Y447233D01*
X443914Y448383D01*
X443157Y449369D01*
X442725Y449701D01*
X443260Y451276D01*
X444512D01*
Y452470D01*
X452988D01*
Y449972D01*
X464012D01*
Y459027D01*
X462440D01*
X461830Y460441D01*
X461842Y460602D01*
X462713Y461271D01*
X463439Y462217D01*
X463895Y463318D01*
X464051Y464500D01*
X463895Y465682D01*
X463439Y466783D01*
X462713Y467729D01*
X461768Y468455D01*
X460666Y468911D01*
X459484Y469067D01*
D02*
G37*
G36*
X366817Y462569D02*
X365613D01*
X364449Y462257D01*
X363406Y461654D01*
X362554Y460803D01*
X361952Y459760D01*
X361640Y458596D01*
Y457391D01*
X361649Y457359D01*
X355535Y451244D01*
X355093Y450669D01*
X354815Y449998D01*
X354720Y449279D01*
Y418237D01*
X353146Y417815D01*
X352875Y418283D01*
X352024Y419135D01*
X350981Y419737D01*
X349817Y420049D01*
X348612D01*
X347449Y419737D01*
X346406Y419135D01*
X345554Y418283D01*
X344952Y417240D01*
X344640Y416076D01*
Y414872D01*
X344952Y413708D01*
X345554Y412665D01*
X346406Y411813D01*
X347449Y411211D01*
X348612Y410899D01*
X349817D01*
X350981Y411211D01*
X352024Y411813D01*
X352875Y412665D01*
X353146Y413133D01*
X354720Y412711D01*
Y397405D01*
X353146Y396870D01*
X353142Y396874D01*
X352197Y397600D01*
X351095Y398056D01*
X349913Y398212D01*
X347945D01*
X346763Y398056D01*
X345661Y397600D01*
X344716Y396874D01*
X343990Y395929D01*
X343534Y394827D01*
X343462Y394286D01*
X341870Y393651D01*
X340780Y394741D01*
Y453849D01*
X342145Y455214D01*
X345537D01*
X345554Y455185D01*
X346406Y454333D01*
X347449Y453731D01*
X348612Y453419D01*
X349817D01*
X350981Y453731D01*
X352024Y454333D01*
X352875Y455185D01*
X353478Y456228D01*
X353790Y457391D01*
Y458596D01*
X353478Y459760D01*
X352875Y460803D01*
X352024Y461654D01*
X350981Y462257D01*
X349817Y462569D01*
X348612D01*
X347449Y462257D01*
X346406Y461654D01*
X345554Y460803D01*
X345537Y460773D01*
X340994D01*
X340274Y460679D01*
X339604Y460401D01*
X339028Y459959D01*
X336034Y456965D01*
X335593Y456390D01*
X335315Y455719D01*
X335220Y455000D01*
Y393590D01*
X335315Y392870D01*
X335593Y392200D01*
X336034Y391624D01*
X343417Y384242D01*
Y379118D01*
X354441D01*
Y386633D01*
X354441Y386851D01*
X355910Y388245D01*
X356431Y388227D01*
X360417Y384242D01*
Y379118D01*
X371146D01*
X371441Y379118D01*
X372390Y378589D01*
X372531Y376962D01*
X369849Y374280D01*
X345162D01*
X344442Y374185D01*
X343772Y373907D01*
X343196Y373465D01*
X334081Y364350D01*
X326988D01*
Y355295D01*
X328559D01*
X329170Y353881D01*
X329158Y353720D01*
X328287Y353052D01*
X327561Y352106D01*
X327105Y351005D01*
X326949Y349823D01*
X327105Y348641D01*
X327561Y347539D01*
X328287Y346593D01*
X329232Y345868D01*
X330334Y345411D01*
X331516Y345256D01*
X333484D01*
X334666Y345411D01*
X335768Y345868D01*
X336713Y346593D01*
X337439Y347539D01*
X337895Y348641D01*
X338051Y349823D01*
X337895Y351005D01*
X337439Y352106D01*
X336713Y353052D01*
X335842Y353720D01*
X335830Y353881D01*
X336440Y355295D01*
X338012D01*
Y360419D01*
X341842Y364250D01*
X343417Y363597D01*
X343417Y363087D01*
Y355295D01*
X344988D01*
X345599Y353881D01*
X345587Y353720D01*
X344716Y353052D01*
X343990Y352106D01*
X343534Y351005D01*
X343378Y349823D01*
X343534Y348641D01*
X343990Y347539D01*
X344716Y346593D01*
X345661Y345868D01*
X346763Y345411D01*
X347945Y345256D01*
X349913D01*
X351095Y345411D01*
X352197Y345868D01*
X353142Y346593D01*
X353868Y347539D01*
X354324Y348641D01*
X354480Y349823D01*
X354324Y351005D01*
X353868Y352106D01*
X353142Y353052D01*
X352271Y353720D01*
X352259Y353881D01*
X352869Y355295D01*
X354441D01*
Y364350D01*
X344722D01*
X344170Y364350D01*
X343518Y365925D01*
X346313Y368720D01*
X371000D01*
X371719Y368815D01*
X372390Y369093D01*
X372453Y369141D01*
X373927Y368507D01*
X374027Y368400D01*
Y364199D01*
X372842Y363225D01*
X371441Y363805D01*
Y364350D01*
X360417D01*
Y355295D01*
X361988D01*
X362599Y353881D01*
X362587Y353720D01*
X361716Y353052D01*
X360990Y352106D01*
X360534Y351005D01*
X360378Y349823D01*
X360534Y348641D01*
X360990Y347539D01*
X361716Y346593D01*
X362661Y345868D01*
X363763Y345411D01*
X364945Y345256D01*
X366913D01*
X368095Y345411D01*
X369197Y345868D01*
X370142Y346593D01*
X370645Y347249D01*
X371836Y347034D01*
X372220Y346834D01*
Y343651D01*
X371349Y342780D01*
X365413D01*
X364694Y342685D01*
X364023Y342407D01*
X363448Y341966D01*
X350510Y329028D01*
X343417D01*
Y319972D01*
X344988D01*
X345599Y318559D01*
X345587Y318398D01*
X344716Y317729D01*
X343990Y316783D01*
X343534Y315682D01*
X343533Y315681D01*
X348929D01*
X354324D01*
X354324Y315682D01*
X353868Y316783D01*
X353142Y317729D01*
X352271Y318398D01*
X352259Y318559D01*
X352869Y319972D01*
X354441D01*
Y325097D01*
X359175Y329831D01*
X360417Y328846D01*
X360417Y327528D01*
Y319972D01*
X361988D01*
X362599Y318559D01*
X362587Y318398D01*
X361716Y317729D01*
X360990Y316783D01*
X360534Y315682D01*
X360533Y315681D01*
X365929D01*
X371324D01*
X371324Y315682D01*
X370868Y316783D01*
X370142Y317729D01*
X369271Y318398D01*
X369259Y318559D01*
X369869Y319972D01*
X371441D01*
Y329028D01*
X361981D01*
X360599Y329028D01*
X359614Y330270D01*
X366565Y337220D01*
X372500D01*
X373219Y337315D01*
X373890Y337593D01*
X374465Y338035D01*
X376965Y340534D01*
X377407Y341110D01*
X377685Y341781D01*
X377733Y342143D01*
X378677Y342575D01*
X379120Y342612D01*
X380276Y341618D01*
X380227Y340048D01*
X379343Y339370D01*
X378586Y338383D01*
X378110Y337233D01*
X377947Y336000D01*
X378110Y334767D01*
X378586Y333617D01*
X379343Y332630D01*
X380330Y331873D01*
X380381Y331852D01*
Y330148D01*
X380330Y330127D01*
X379343Y329369D01*
X378586Y328383D01*
X378420Y327983D01*
X378027Y327932D01*
X377357Y327654D01*
X376781Y327212D01*
X374035Y324465D01*
X373593Y323890D01*
X373315Y323219D01*
X373220Y322500D01*
Y309384D01*
X373315Y308664D01*
X373593Y307994D01*
X374035Y307418D01*
X376918Y304535D01*
X377494Y304093D01*
X378164Y303815D01*
X378884Y303720D01*
X448016D01*
X448735Y303815D01*
X449406Y304093D01*
X449981Y304535D01*
X456919Y311472D01*
X464012D01*
Y320528D01*
X462440D01*
X461830Y321941D01*
X461842Y322102D01*
X462713Y322771D01*
X463439Y323717D01*
X463895Y324818D01*
X463895Y324819D01*
X458500D01*
X453105D01*
X453105Y324818D01*
X453561Y323717D01*
X454287Y322771D01*
X455158Y322102D01*
X455170Y321941D01*
X454560Y320528D01*
X452988D01*
Y315404D01*
X446864Y309280D01*
X381024D01*
X379908Y310556D01*
X381447Y311410D01*
X381479Y311397D01*
X382713Y311235D01*
X384287D01*
X385521Y311397D01*
X386670Y311873D01*
X387657Y312631D01*
X388414Y313617D01*
X388890Y314767D01*
X389053Y316000D01*
X388890Y317233D01*
X388414Y318383D01*
X387657Y319370D01*
X386670Y320127D01*
X386619Y320148D01*
Y321852D01*
X386670Y321873D01*
X387657Y322631D01*
X388414Y323617D01*
X388890Y324767D01*
X389053Y326000D01*
X388890Y327233D01*
X388414Y328383D01*
X387657Y329369D01*
X386670Y330127D01*
X386619Y330148D01*
Y331852D01*
X386670Y331873D01*
X387657Y332630D01*
X388414Y333617D01*
X388890Y334767D01*
X389053Y336000D01*
X388890Y337233D01*
X388414Y338383D01*
X387657Y339370D01*
X386670Y340127D01*
X386619Y340148D01*
Y341852D01*
X386670Y341873D01*
X387657Y342631D01*
X388414Y343617D01*
X388890Y344767D01*
X389053Y346000D01*
X388890Y347233D01*
X388414Y348383D01*
X387657Y349370D01*
X386670Y350127D01*
X386619Y350148D01*
Y351852D01*
X386670Y351873D01*
X387657Y352630D01*
X388414Y353617D01*
X388890Y354767D01*
X389053Y356000D01*
X388890Y357233D01*
X388414Y358383D01*
X387657Y359369D01*
X386670Y360127D01*
X386619Y360148D01*
Y361852D01*
X386670Y361873D01*
X387657Y362631D01*
X388414Y363617D01*
X388890Y364767D01*
X389053Y366000D01*
X388890Y367233D01*
X388414Y368383D01*
X387657Y369370D01*
X386670Y370127D01*
X386619Y370148D01*
Y371852D01*
X386670Y371873D01*
X387657Y372631D01*
X388414Y373617D01*
X388890Y374767D01*
X389053Y376000D01*
X388890Y377233D01*
X388414Y378383D01*
X387657Y379369D01*
X386670Y380127D01*
X386619Y380148D01*
Y381852D01*
X386670Y381873D01*
X387657Y382630D01*
X388414Y383617D01*
X388890Y384767D01*
X389053Y386000D01*
X388890Y387233D01*
X388414Y388383D01*
X387657Y389370D01*
X386670Y390127D01*
X386619Y390148D01*
Y391852D01*
X386670Y391873D01*
X387657Y392631D01*
X388414Y393617D01*
X388890Y394767D01*
X389053Y396000D01*
X388890Y397233D01*
X388414Y398383D01*
X387657Y399370D01*
X386670Y400127D01*
X386619Y400148D01*
Y401852D01*
X386670Y401873D01*
X387657Y402631D01*
X388414Y403617D01*
X388890Y404767D01*
X389053Y406000D01*
X388890Y407233D01*
X388414Y408383D01*
X387657Y409370D01*
X386670Y410127D01*
X386619Y410148D01*
Y411852D01*
X386670Y411873D01*
X387657Y412631D01*
X388414Y413617D01*
X388890Y414767D01*
X389053Y416000D01*
X388890Y417233D01*
X388414Y418383D01*
X387657Y419370D01*
X386670Y420127D01*
X386619Y420148D01*
Y421852D01*
X386670Y421873D01*
X387657Y422631D01*
X388414Y423617D01*
X388890Y424767D01*
X389053Y426000D01*
X388890Y427233D01*
X388414Y428383D01*
X387657Y429369D01*
X386670Y430127D01*
X386619Y430148D01*
Y431852D01*
X386670Y431873D01*
X387657Y432630D01*
X388414Y433617D01*
X388890Y434767D01*
X389053Y436000D01*
X388890Y437233D01*
X388414Y438383D01*
X387657Y439369D01*
X386670Y440127D01*
X386619Y440148D01*
Y441852D01*
X386670Y441873D01*
X387657Y442630D01*
X388414Y443617D01*
X388890Y444767D01*
X389053Y446000D01*
X388890Y447233D01*
X388414Y448383D01*
X387657Y449369D01*
X387225Y449701D01*
X387760Y451276D01*
X389012D01*
Y460724D01*
X377988D01*
Y451276D01*
X379240D01*
X379775Y449701D01*
X379343Y449369D01*
X378586Y448383D01*
X378110Y447233D01*
X377947Y446000D01*
X378110Y444767D01*
X378586Y443617D01*
X379343Y442630D01*
X380330Y441873D01*
X380381Y441852D01*
Y440148D01*
X380330Y440127D01*
X379343Y439369D01*
X378586Y438383D01*
X378110Y437233D01*
X377947Y436000D01*
X378110Y434767D01*
X378586Y433617D01*
X379343Y432630D01*
X380330Y431873D01*
X380381Y431852D01*
Y430148D01*
X380330Y430127D01*
X379343Y429369D01*
X378586Y428383D01*
X378110Y427233D01*
X377947Y426000D01*
X378110Y424767D01*
X378586Y423617D01*
X379343Y422631D01*
X380330Y421873D01*
X380381Y421852D01*
Y420148D01*
X380330Y420127D01*
X379343Y419370D01*
X378689Y418517D01*
X369642D01*
X369024Y419135D01*
X367981Y419737D01*
X366817Y420049D01*
X365613D01*
X364449Y419737D01*
X363406Y419135D01*
X362554Y418283D01*
X361952Y417240D01*
X361855Y416877D01*
X360280Y417084D01*
Y448128D01*
X365580Y453428D01*
X365613Y453419D01*
X366817D01*
X367981Y453731D01*
X369024Y454333D01*
X369876Y455185D01*
X370478Y456228D01*
X370790Y457391D01*
Y458596D01*
X370478Y459760D01*
X369876Y460803D01*
X369024Y461654D01*
X367981Y462257D01*
X366817Y462569D01*
D02*
G37*
G36*
X459681Y437207D02*
Y433848D01*
X463895D01*
X463895Y433849D01*
X463439Y434950D01*
X462713Y435896D01*
X461768Y436622D01*
X460666Y437078D01*
X459681Y437207D01*
D02*
G37*
G36*
X457319Y437207D02*
X456334Y437078D01*
X455232Y436622D01*
X454287Y435896D01*
X453561Y434950D01*
X453105Y433849D01*
X453105Y433848D01*
X457319D01*
Y437207D01*
D02*
G37*
G36*
X463895Y431486D02*
X458500D01*
X453105D01*
X453105Y431485D01*
X453561Y430383D01*
X454287Y429438D01*
X455232Y428712D01*
X455698Y428519D01*
Y426814D01*
X455232Y426621D01*
X454287Y425896D01*
X453561Y424950D01*
X453105Y423849D01*
X452949Y422667D01*
X453105Y421485D01*
X453561Y420383D01*
X454287Y419438D01*
X455232Y418712D01*
X455698Y418519D01*
Y416814D01*
X455232Y416621D01*
X454287Y415896D01*
X453561Y414950D01*
X453105Y413849D01*
X452949Y412667D01*
X453105Y411485D01*
X453561Y410383D01*
X454287Y409438D01*
X455158Y408769D01*
X455170Y408608D01*
X454560Y407194D01*
X452988D01*
Y405446D01*
X446454D01*
X446061Y405395D01*
X445575Y405590D01*
X445235Y405824D01*
X444482Y406537D01*
X444390Y407233D01*
X443914Y408383D01*
X443157Y409370D01*
X442170Y410127D01*
X442119Y410148D01*
Y411852D01*
X442170Y411873D01*
X443157Y412631D01*
X443914Y413617D01*
X444390Y414767D01*
X444553Y416000D01*
X444390Y417233D01*
X443914Y418383D01*
X443157Y419370D01*
X442170Y420127D01*
X442119Y420148D01*
Y421852D01*
X442170Y421873D01*
X443157Y422631D01*
X443914Y423617D01*
X444390Y424767D01*
X444397Y424819D01*
X439000D01*
X433603D01*
X433610Y424767D01*
X434086Y423617D01*
X434843Y422631D01*
X435830Y421873D01*
X435881Y421852D01*
Y420148D01*
X435830Y420127D01*
X434843Y419370D01*
X434086Y418383D01*
X433610Y417233D01*
X433447Y416000D01*
X433610Y414767D01*
X434086Y413617D01*
X434843Y412631D01*
X435830Y411873D01*
X435881Y411852D01*
Y410148D01*
X435830Y410127D01*
X434843Y409370D01*
X434086Y408383D01*
X433610Y407233D01*
X433447Y406000D01*
X433610Y404767D01*
X434086Y403617D01*
X434843Y402631D01*
X435830Y401873D01*
X435881Y401852D01*
Y400148D01*
X435830Y400127D01*
X434843Y399370D01*
X434086Y398383D01*
X433610Y397233D01*
X433447Y396000D01*
X433610Y394767D01*
X434086Y393617D01*
X434843Y392631D01*
X435830Y391873D01*
X435881Y391852D01*
Y390148D01*
X435830Y390127D01*
X434843Y389370D01*
X434086Y388383D01*
X433610Y387233D01*
X433447Y386000D01*
X433610Y384767D01*
X434086Y383617D01*
X434843Y382630D01*
X435830Y381873D01*
X435881Y381852D01*
Y380148D01*
X435830Y380127D01*
X434843Y379369D01*
X434086Y378383D01*
X433610Y377233D01*
X433447Y376000D01*
X433610Y374767D01*
X434086Y373617D01*
X434843Y372631D01*
X435830Y371873D01*
X435881Y371852D01*
Y370148D01*
X435830Y370127D01*
X434843Y369370D01*
X434086Y368383D01*
X433610Y367233D01*
X433447Y366000D01*
X433610Y364767D01*
X434086Y363617D01*
X434843Y362631D01*
X435830Y361873D01*
X435881Y361852D01*
Y360148D01*
X435830Y360127D01*
X434843Y359369D01*
X434086Y358383D01*
X433610Y357233D01*
X433447Y356000D01*
X433610Y354767D01*
X434086Y353617D01*
X434843Y352630D01*
X435830Y351873D01*
X435881Y351852D01*
Y350148D01*
X435830Y350127D01*
X434843Y349370D01*
X434086Y348383D01*
X433610Y347233D01*
X433447Y346000D01*
X433610Y344767D01*
X434086Y343617D01*
X434843Y342631D01*
X435830Y341873D01*
X435881Y341852D01*
Y340148D01*
X435830Y340127D01*
X434843Y339370D01*
X434086Y338383D01*
X433610Y337233D01*
X433447Y336000D01*
X433610Y334767D01*
X434086Y333617D01*
X434843Y332630D01*
X435830Y331873D01*
X435881Y331852D01*
Y330148D01*
X435830Y330127D01*
X434843Y329369D01*
X434086Y328383D01*
X433610Y327233D01*
X433447Y326000D01*
X433610Y324767D01*
X434086Y323617D01*
X434843Y322631D01*
X435830Y321873D01*
X435881Y321852D01*
Y320148D01*
X435830Y320127D01*
X434843Y319370D01*
X434086Y318383D01*
X433610Y317233D01*
X433447Y316000D01*
X433610Y314767D01*
X434086Y313617D01*
X434843Y312631D01*
X435830Y311873D01*
X436979Y311397D01*
X438213Y311235D01*
X439787D01*
X441021Y311397D01*
X442170Y311873D01*
X443157Y312631D01*
X443914Y313617D01*
X444390Y314767D01*
X444553Y316000D01*
X444390Y317233D01*
X443914Y318383D01*
X443157Y319370D01*
X442170Y320127D01*
X442119Y320148D01*
Y321852D01*
X442170Y321873D01*
X443157Y322631D01*
X443914Y323617D01*
X444390Y324767D01*
X444553Y326000D01*
X444390Y327233D01*
X443914Y328383D01*
X443157Y329369D01*
X442170Y330127D01*
X442119Y330148D01*
Y331852D01*
X442170Y331873D01*
X443157Y332630D01*
X443914Y333617D01*
X444390Y334767D01*
X444553Y336000D01*
X444390Y337233D01*
X443914Y338383D01*
X443157Y339370D01*
X442170Y340127D01*
X442119Y340148D01*
Y341852D01*
X442170Y341873D01*
X443157Y342631D01*
X443914Y343617D01*
X444390Y344767D01*
X444553Y346000D01*
X444390Y347233D01*
X443914Y348383D01*
X443157Y349370D01*
X442170Y350127D01*
X442119Y350148D01*
Y351852D01*
X442170Y351873D01*
X443157Y352630D01*
X443914Y353617D01*
X444390Y354767D01*
X444553Y356000D01*
X444390Y357233D01*
X443914Y358383D01*
X443157Y359369D01*
X442170Y360127D01*
X442119Y360148D01*
Y361852D01*
X442170Y361873D01*
X443157Y362631D01*
X443914Y363617D01*
X444390Y364767D01*
X444553Y366000D01*
X444390Y367233D01*
X443914Y368383D01*
X443157Y369370D01*
X442170Y370127D01*
X442119Y370148D01*
Y371852D01*
X442170Y371873D01*
X443157Y372631D01*
X443914Y373617D01*
X444390Y374767D01*
X444553Y376000D01*
X444390Y377233D01*
X443914Y378383D01*
X443157Y379369D01*
X442170Y380127D01*
X442119Y380148D01*
Y381852D01*
X442170Y381873D01*
X443157Y382630D01*
X443914Y383617D01*
X444390Y384767D01*
X444553Y386000D01*
X444390Y387233D01*
X443914Y388383D01*
X443157Y389370D01*
X442170Y390127D01*
X442119Y390148D01*
Y391852D01*
X442170Y391873D01*
X443157Y392631D01*
X443914Y393617D01*
X444390Y394767D01*
X444553Y396000D01*
X444455Y396737D01*
X447605Y399887D01*
X452988D01*
Y398139D01*
X464012D01*
Y407194D01*
X462440D01*
X461830Y408608D01*
X461842Y408769D01*
X462713Y409438D01*
X463439Y410383D01*
X463895Y411485D01*
X464051Y412667D01*
X463895Y413849D01*
X463439Y414950D01*
X462713Y415896D01*
X461768Y416621D01*
X461302Y416814D01*
Y418519D01*
X461768Y418712D01*
X462713Y419438D01*
X463439Y420383D01*
X463895Y421485D01*
X464051Y422667D01*
X463895Y423849D01*
X463439Y424950D01*
X462713Y425896D01*
X461768Y426621D01*
X461302Y426814D01*
Y428519D01*
X461768Y428712D01*
X462713Y429438D01*
X463439Y430383D01*
X463895Y431485D01*
X463895Y431486D01*
D02*
G37*
G36*
X475130Y404434D02*
X473925D01*
X472762Y404122D01*
X471719Y403520D01*
X470867Y402668D01*
X470265Y401625D01*
X469953Y400462D01*
Y399257D01*
X470265Y398094D01*
X470867Y397050D01*
X471719Y396199D01*
X472762Y395596D01*
X473925Y395285D01*
X475130D01*
X476294Y395596D01*
X477337Y396199D01*
X478189Y397050D01*
X478205Y397080D01*
X482489D01*
X491220Y388349D01*
Y384002D01*
X490978Y383862D01*
X490062Y382946D01*
X489414Y381823D01*
X489079Y380572D01*
Y379276D01*
X489414Y378024D01*
X490062Y376902D01*
X490978Y375986D01*
X492100Y375338D01*
X493352Y375003D01*
X494648D01*
X495899Y375338D01*
X497022Y375986D01*
X497938Y376902D01*
X498586Y378024D01*
X498921Y379276D01*
Y380572D01*
X498586Y381823D01*
X497938Y382946D01*
X497022Y383862D01*
X496780Y384002D01*
Y389500D01*
X496685Y390219D01*
X496407Y390890D01*
X495965Y391465D01*
X485606Y401825D01*
X485031Y402267D01*
X484360Y402544D01*
X483641Y402639D01*
X478205D01*
X478189Y402668D01*
X477337Y403520D01*
X476294Y404122D01*
X475130Y404434D01*
D02*
G37*
G36*
X459484Y383900D02*
X457516D01*
X456334Y383744D01*
X455232Y383288D01*
X454287Y382562D01*
X453561Y381617D01*
X453105Y380515D01*
X452949Y379333D01*
X453105Y378151D01*
X453561Y377050D01*
X454287Y376104D01*
X455232Y375378D01*
X455698Y375186D01*
Y373481D01*
X455232Y373288D01*
X454287Y372562D01*
X453561Y371617D01*
X453105Y370515D01*
X453105Y370514D01*
X458500D01*
X463895D01*
X463895Y370515D01*
X463439Y371617D01*
X462713Y372562D01*
X461768Y373288D01*
X461302Y373481D01*
Y375186D01*
X461768Y375378D01*
X462713Y376104D01*
X463439Y377050D01*
X463895Y378151D01*
X464051Y379333D01*
X463895Y380515D01*
X463439Y381617D01*
X462713Y382562D01*
X461768Y383288D01*
X460666Y383744D01*
X459484Y383900D01*
D02*
G37*
G36*
X463895Y368152D02*
X458500D01*
X453105D01*
X453105Y368151D01*
X453561Y367050D01*
X454287Y366104D01*
X455158Y365436D01*
X455170Y365275D01*
X454560Y363861D01*
X452988D01*
Y354806D01*
X460081D01*
X465852Y349035D01*
X466428Y348593D01*
X467098Y348315D01*
X467818Y348220D01*
X486000D01*
X486719Y348315D01*
X487390Y348593D01*
X487965Y349035D01*
X491796Y352865D01*
X492017Y353153D01*
X494182Y355318D01*
X494648D01*
X495899Y355653D01*
X497022Y356301D01*
X497938Y357217D01*
X498586Y358339D01*
X498921Y359591D01*
Y360887D01*
X498586Y362138D01*
X497938Y363261D01*
X497022Y364177D01*
X495899Y364825D01*
X494648Y365160D01*
X493352D01*
X492100Y364825D01*
X490978Y364177D01*
X490062Y363261D01*
X489414Y362138D01*
X489079Y360887D01*
Y359591D01*
X489399Y358397D01*
X487865Y356863D01*
X487644Y356575D01*
X484849Y353780D01*
X479573D01*
X478664Y355354D01*
X478791Y355574D01*
X479103Y356737D01*
Y357942D01*
X478791Y359105D01*
X478189Y360149D01*
X477337Y361000D01*
X476294Y361603D01*
X475130Y361914D01*
X473925D01*
X472762Y361603D01*
X471719Y361000D01*
X470867Y360149D01*
X470265Y359105D01*
X469953Y357942D01*
Y356737D01*
X470050Y356373D01*
X469152Y354842D01*
X468947Y354707D01*
X468142Y354607D01*
X464012Y358737D01*
Y363861D01*
X462440D01*
X461830Y365275D01*
X461842Y365436D01*
X462713Y366104D01*
X463439Y367050D01*
X463895Y368151D01*
X463895Y368152D01*
D02*
G37*
G36*
X459484Y340567D02*
X457516D01*
X456334Y340411D01*
X455232Y339955D01*
X454287Y339229D01*
X453561Y338283D01*
X453105Y337182D01*
X452949Y336000D01*
X453105Y334818D01*
X453561Y333717D01*
X454287Y332771D01*
X455232Y332045D01*
X455698Y331852D01*
Y330148D01*
X455232Y329955D01*
X454287Y329229D01*
X453561Y328283D01*
X453105Y327182D01*
X453105Y327181D01*
X458500D01*
X463895D01*
X463895Y327182D01*
X463439Y328283D01*
X462713Y329229D01*
X461768Y329955D01*
X461302Y330148D01*
Y331852D01*
X461768Y332045D01*
X462713Y332771D01*
X463439Y333717D01*
X463895Y334818D01*
X464051Y336000D01*
X463895Y337182D01*
X463439Y338283D01*
X462713Y339229D01*
X461768Y339955D01*
X460666Y340411D01*
X459484Y340567D01*
D02*
G37*
G36*
X338012Y329028D02*
X326988D01*
Y319972D01*
X328559D01*
X329170Y318559D01*
X329158Y318398D01*
X328287Y317729D01*
X327561Y316783D01*
X327105Y315682D01*
X327105Y315681D01*
X332500D01*
X337895D01*
X337895Y315682D01*
X337439Y316783D01*
X336713Y317729D01*
X335842Y318398D01*
X335830Y318559D01*
X336440Y319972D01*
X338012D01*
Y329028D01*
D02*
G37*
G36*
X371324Y313319D02*
X365929D01*
X360533D01*
X360534Y313318D01*
X360990Y312217D01*
X361716Y311271D01*
X362661Y310545D01*
X363127Y310352D01*
Y308648D01*
X362661Y308455D01*
X361716Y307729D01*
X360990Y306783D01*
X360534Y305682D01*
X360378Y304500D01*
X360534Y303318D01*
X360990Y302217D01*
X361716Y301271D01*
X362661Y300545D01*
X363763Y300089D01*
X364945Y299933D01*
X366913D01*
X368095Y300089D01*
X369197Y300545D01*
X370142Y301271D01*
X370868Y302217D01*
X371324Y303318D01*
X371480Y304500D01*
X371324Y305682D01*
X370868Y306783D01*
X370142Y307729D01*
X369197Y308455D01*
X368731Y308648D01*
Y310352D01*
X369197Y310545D01*
X370142Y311271D01*
X370868Y312217D01*
X371324Y313318D01*
X371324Y313319D01*
D02*
G37*
G36*
X354324D02*
X348929D01*
X343533D01*
X343534Y313318D01*
X343990Y312217D01*
X344716Y311271D01*
X345661Y310545D01*
X346127Y310352D01*
Y308648D01*
X345661Y308455D01*
X344716Y307729D01*
X343990Y306783D01*
X343534Y305682D01*
X343378Y304500D01*
X343534Y303318D01*
X343990Y302217D01*
X344716Y301271D01*
X345661Y300545D01*
X346763Y300089D01*
X347945Y299933D01*
X349913D01*
X351095Y300089D01*
X352197Y300545D01*
X353142Y301271D01*
X353868Y302217D01*
X354324Y303318D01*
X354480Y304500D01*
X354324Y305682D01*
X353868Y306783D01*
X353142Y307729D01*
X352197Y308455D01*
X351731Y308648D01*
Y310352D01*
X352197Y310545D01*
X353142Y311271D01*
X353868Y312217D01*
X354324Y313318D01*
X354324Y313319D01*
D02*
G37*
%LPD*%
G36*
X361952Y413708D02*
X362554Y412665D01*
X363406Y411813D01*
X364449Y411211D01*
X365613Y410899D01*
X366817D01*
X367981Y411211D01*
X369024Y411813D01*
X369876Y412665D01*
X370044Y412957D01*
X379092D01*
X379343Y412631D01*
X380330Y411873D01*
X380381Y411852D01*
Y410148D01*
X380330Y410127D01*
X379343Y409370D01*
X378586Y408383D01*
X378110Y407233D01*
X377947Y406000D01*
X378110Y404767D01*
X378586Y403617D01*
X379343Y402631D01*
X380330Y401873D01*
X380381Y401852D01*
Y400148D01*
X380330Y400127D01*
X379343Y399370D01*
X378586Y398383D01*
X378110Y397233D01*
X377947Y396000D01*
X378078Y395009D01*
X373534Y390465D01*
X373093Y389890D01*
X372815Y389219D01*
X372759Y388792D01*
X371575Y388236D01*
X371302Y388173D01*
X371146Y388173D01*
X369869D01*
X369259Y389586D01*
X369271Y389748D01*
X370142Y390416D01*
X370868Y391362D01*
X371324Y392463D01*
X371480Y393645D01*
X371324Y394827D01*
X370868Y395929D01*
X370142Y396874D01*
X369197Y397600D01*
X368095Y398056D01*
X366913Y398212D01*
X364945D01*
X363763Y398056D01*
X362661Y397600D01*
X361855Y396981D01*
X361264Y397099D01*
X360280Y397590D01*
Y413864D01*
X361855Y414071D01*
X361952Y413708D01*
D02*
G37*
G36*
X379018Y360598D02*
X379101Y360282D01*
X379112Y359068D01*
X378586Y358383D01*
X378110Y357233D01*
X377947Y356000D01*
X378045Y355263D01*
X373035Y350253D01*
X373015Y350227D01*
X371368Y350669D01*
X371324Y351005D01*
X370868Y352106D01*
X370142Y353052D01*
X369271Y353720D01*
X369259Y353881D01*
X369869Y355295D01*
X371441D01*
Y357043D01*
X373616D01*
X374336Y357138D01*
X375006Y357415D01*
X375582Y357857D01*
X378478Y360753D01*
X379018Y360598D01*
D02*
G37*
D18*
X439000Y456000D02*
X439750Y455250D01*
X457750D01*
X458500Y454500D01*
X364945Y383645D02*
X365929D01*
X357500Y391090D02*
X364945Y383645D01*
X357500Y391090D02*
Y449279D01*
X366215Y457994D01*
X382713Y356000D02*
X383500D01*
X375000Y348287D02*
X382713Y356000D01*
X375000Y342500D02*
Y348287D01*
X372500Y340000D02*
X375000Y342500D01*
X365413Y340000D02*
X372500D01*
X349913Y324500D02*
X365413Y340000D01*
X348929Y324500D02*
X349913D01*
X332500D02*
X333484D01*
X382713Y346000D02*
X383500D01*
X365929Y324500D02*
X366913D01*
X383000Y396000D02*
X383500D01*
X375500Y388500D02*
X383000Y396000D01*
X375500Y376000D02*
Y388500D01*
X371000Y371500D02*
X375500Y376000D01*
X345162Y371500D02*
X371000D01*
X333484Y359823D02*
X345162Y371500D01*
X332500Y359823D02*
X333484D01*
X467818Y351000D02*
X486000D01*
X459484Y359333D02*
X467818Y351000D01*
X458500Y359333D02*
X459484D01*
X486000Y351000D02*
X489831Y354831D01*
Y354898D01*
X494000Y359067D02*
Y360239D01*
X489831Y354898D02*
X494000Y359067D01*
X376807Y363013D02*
Y369739D01*
X383068Y376000D01*
X383500D01*
X348929Y359823D02*
X349913D01*
X382713Y396000D02*
X383500D01*
X382713Y386000D02*
X383500D01*
X373616Y359823D02*
X376807Y363013D01*
X365929Y359823D02*
X373616D01*
X347945Y383645D02*
X348929D01*
X338000Y393590D02*
X347945Y383645D01*
X338000Y393590D02*
Y455000D01*
X340994Y457994D01*
X349215D01*
X366215Y415474D02*
X366478Y415737D01*
X383237D01*
X383500Y416000D01*
X474528Y399859D02*
X483641D01*
X494000Y389500D01*
Y379924D02*
Y389500D01*
X382747Y325247D02*
X383500Y326000D01*
X378747Y325247D02*
X382747D01*
X376000Y322500D02*
X378747Y325247D01*
X376000Y309384D02*
Y322500D01*
Y309384D02*
X378884Y306500D01*
X448016D01*
X457516Y316000D01*
X458500D01*
X439000Y386000D02*
X439787D01*
X458500Y412667D02*
X459484D01*
X439000Y386000D02*
X440500D01*
X458500Y412667D02*
X459833D01*
X439000Y396000D02*
X439787D01*
X446454Y402667D01*
X458500D01*
X439000Y456000D02*
X439787D01*
D19*
X439000Y316000D02*
D03*
Y326000D02*
D03*
Y336000D02*
D03*
Y346000D02*
D03*
Y356000D02*
D03*
Y366000D02*
D03*
Y376000D02*
D03*
Y386000D02*
D03*
Y396000D02*
D03*
Y406000D02*
D03*
Y416000D02*
D03*
Y426000D02*
D03*
Y436000D02*
D03*
Y446000D02*
D03*
X383500Y316000D02*
D03*
Y326000D02*
D03*
Y336000D02*
D03*
Y346000D02*
D03*
Y356000D02*
D03*
Y366000D02*
D03*
Y376000D02*
D03*
Y386000D02*
D03*
Y396000D02*
D03*
Y406000D02*
D03*
Y416000D02*
D03*
Y426000D02*
D03*
Y436000D02*
D03*
Y446000D02*
D03*
D20*
X439000Y456000D02*
D03*
X383500D02*
D03*
D21*
X458500Y464500D02*
D03*
X332500Y304500D02*
D03*
Y314500D02*
D03*
X458500Y336000D02*
D03*
Y326000D02*
D03*
Y379333D02*
D03*
Y369333D02*
D03*
X348929Y304500D02*
D03*
Y314500D02*
D03*
X365929Y349823D02*
D03*
X348929D02*
D03*
X332500D02*
D03*
X365929Y393645D02*
D03*
X348929D02*
D03*
X458500Y412667D02*
D03*
Y422667D02*
D03*
Y432667D02*
D03*
X365929Y304500D02*
D03*
Y314500D02*
D03*
D22*
X458500Y454500D02*
D03*
X332500Y324500D02*
D03*
X458500Y316000D02*
D03*
Y359333D02*
D03*
X348929Y324500D02*
D03*
X365929Y359823D02*
D03*
X348929D02*
D03*
X332500D02*
D03*
X365929Y383645D02*
D03*
X348929D02*
D03*
X458500Y402667D02*
D03*
X365929Y324500D02*
D03*
D23*
X488189Y291339D02*
D03*
Y468504D02*
D03*
X330709Y291339D02*
D03*
Y468504D02*
D03*
X474528Y399859D02*
D03*
Y357340D02*
D03*
X366215Y457994D02*
D03*
Y415474D02*
D03*
X349215Y457994D02*
D03*
Y415474D02*
D03*
D24*
X494000Y360239D02*
D03*
Y379924D02*
D03*
M02*
