G04*
G04 #@! TF.GenerationSoftware,Altium Limited,Altium Designer,25.8.1 (18)*
G04*
G04 Layer_Color=16711935*
%FSLAX25Y25*%
%MOIN*%
G70*
G04*
G04 #@! TF.SameCoordinates,8EC05070-4222-424C-B7D2-10FEA1704A48*
G04*
G04*
G04 #@! TF.FilePolarity,Negative*
G04*
G01*
G75*
%ADD12O,0.08674X0.07099*%
%ADD13R,0.08674X0.07099*%
%ADD14O,0.08674X0.06706*%
%ADD15R,0.08674X0.06706*%
%ADD16C,0.06800*%
%ADD17C,0.07493*%
D12*
X439000Y316000D02*
D03*
Y326000D02*
D03*
Y336000D02*
D03*
Y346000D02*
D03*
Y356000D02*
D03*
Y366000D02*
D03*
Y376000D02*
D03*
Y386000D02*
D03*
Y396000D02*
D03*
Y406000D02*
D03*
Y416000D02*
D03*
Y426000D02*
D03*
Y436000D02*
D03*
Y446000D02*
D03*
X383500Y316000D02*
D03*
Y326000D02*
D03*
Y336000D02*
D03*
Y346000D02*
D03*
Y356000D02*
D03*
Y366000D02*
D03*
Y376000D02*
D03*
Y386000D02*
D03*
Y396000D02*
D03*
Y406000D02*
D03*
Y416000D02*
D03*
Y426000D02*
D03*
Y436000D02*
D03*
Y446000D02*
D03*
D13*
X439000Y456000D02*
D03*
X383500D02*
D03*
D14*
X458500Y464500D02*
D03*
X332500Y304500D02*
D03*
Y314500D02*
D03*
X458500Y336000D02*
D03*
Y326000D02*
D03*
Y379333D02*
D03*
Y369333D02*
D03*
X348929Y304500D02*
D03*
Y314500D02*
D03*
X365929Y349823D02*
D03*
X348929D02*
D03*
X332500D02*
D03*
X365929Y393645D02*
D03*
X348929D02*
D03*
X458500Y412667D02*
D03*
Y422667D02*
D03*
Y432667D02*
D03*
X365929Y304500D02*
D03*
Y314500D02*
D03*
D15*
X458500Y454500D02*
D03*
X332500Y324500D02*
D03*
X458500Y316000D02*
D03*
Y359333D02*
D03*
X348929Y324500D02*
D03*
X365929Y359823D02*
D03*
X348929D02*
D03*
X332500D02*
D03*
X365929Y383645D02*
D03*
X348929D02*
D03*
X458500Y402667D02*
D03*
X365929Y324500D02*
D03*
D16*
X488189Y291339D02*
D03*
Y468504D02*
D03*
X330709Y291339D02*
D03*
Y468504D02*
D03*
X474528Y399859D02*
D03*
Y357340D02*
D03*
X366215Y457994D02*
D03*
Y415474D02*
D03*
X349215Y457994D02*
D03*
Y415474D02*
D03*
D17*
X494000Y360239D02*
D03*
Y379924D02*
D03*
M02*
