M48
;Layer_Color=9474304
;FILE_FORMAT=2:4
INCH,TZ
;TYPE=PLATED
T01F00S00C0.0276
T02F00S00C0.0315
T03F00S00C0.0354
T04F00S00C0.0394
T05F00S00C0.1260
%
T01
X34921Y41547
X36621
Y45799
X34921
X47453Y39986
Y35734
T02
X49400Y36024
Y37992
T03
X33250Y30450
X34893
X36593
Y31450
Y32450
X34893
Y31450
X33250
Y32450
Y34982
Y35982
X34893
Y34982
X36593
Y35982
Y38365
Y39365
X34893
Y38365
X45850Y37933
Y36933
Y35933
Y33600
Y32600
Y31600
Y40267
Y41267
Y42267
Y43267
Y45450
Y46450
T04
X38350Y31600
Y32600
Y33600
Y34600
Y35600
Y36600
Y37600
Y38600
Y39600
Y40600
Y41600
Y42600
Y43600
Y44600
Y45600
X43900
Y44600
Y43600
Y42600
Y41600
Y40600
Y39600
Y38600
Y37600
Y36600
Y35600
Y34600
Y33600
Y32600
Y31600
T05
X48819Y29134
X33071
Y46850
X48819
M30
